<svg xmlns="http://www.w3.org/2000/svg" width="58" zoomAndPan="magnify" viewBox="0 0 43.5 30.000001"
    height="40" preserveAspectRatio="xMidYMid meet" version="1.0">
    <defs>
        <clipPath id="id1">
            <path d="M 0.460938 12 L 42.554688 12 L 42.554688 17 L 0.460938 17 Z M 0.460938 12 " />
        </clipPath>
        <clipPath id="id2">
            <path d="M 0.460938 14 L 42.554688 14 L 42.554688 19 L 0.460938 19 Z M 0.460938 14 " />
        </clipPath>
        <clipPath id="id3">
            <path
                d="M 18.089844 14.246094 L 30.179688 14.246094 L 30.179688 29.03125 L 18.089844 29.03125 Z M 18.089844 14.246094 " />
        </clipPath>
        <clipPath id="id4">
            <path
                d="M 24 14.246094 L 30.265625 14.246094 L 30.265625 29.03125 L 24 29.03125 Z M 24 14.246094 " />
        </clipPath>
        <clipPath id="id5">
            <path d="M 18 19 L 25 19 L 25 29.03125 L 18 29.03125 Z M 18 19 " />
        </clipPath>
    </defs>
    <g clip-path="url(#id1)">
        <path fill="#b9ddf1"
            d="M 41.710938 14.875 L 42.1875 14.875 C 42.1875 14.875 42.265625 15.035156 42.355469 15.234375 C 42.464844 15.472656 42.582031 15.78125 42.644531 15.96875 C 42.683594 16.097656 42.730469 16.238281 42.761719 16.367188 C 42.820312 16.59375 42.871094 16.78125 42.871094 16.78125 L 0.476562 16.652344 C 0.476562 16.652344 0.476562 16.484375 0.496094 16.246094 C 0.507812 16.058594 0.527344 15.820312 0.554688 15.550781 C 0.585938 15.234375 0.644531 14.804688 0.714844 14.410156 C 0.753906 14.171875 0.824219 13.875 0.824219 13.875 L 1.144531 13.882812 L 1.152344 14.480469 L 1.886719 14.480469 L 1.90625 12.832031 L 2.535156 12.832031 L 2.5625 14.957031 L 20.167969 14.695312 L 21.261719 14.695312 L 21.261719 13.914062 L 21.878906 13.914062 L 21.886719 12.8125 L 22.34375 12.8125 L 22.363281 14.410156 L 22.980469 14.410156 L 22.980469 14.976562 L 23.734375 14.976562 L 23.734375 13.902344 L 24.34375 13.894531 L 24.34375 14.199219 L 25.039062 14.199219 L 31.414062 14.429688 L 33.234375 14.429688 L 33.222656 13.894531 L 35.011719 13.882812 L 35.410156 13.882812 L 35.410156 12.660156 L 35.976562 12.660156 L 35.976562 13.347656 L 36.492188 13.347656 L 36.492188 14.242188 L 37.605469 14.242188 L 37.605469 14.945312 L 38.667969 14.957031 L 38.667969 14.546875 L 39.363281 14.546875 L 39.375 14.242188 L 39.761719 14.25 L 39.761719 14.984375 L 40.792969 14.996094 L 40.792969 15.421875 L 41.710938 15.433594 L 41.710938 14.875 "
            fill-opacity="1" />
    </g>
    <g clip-path="url(#id2)">
        <path fill="#9ecde7"
            d="M 42.871094 16.773438 C 42.921875 16.972656 42.949219 17.160156 42.992188 17.386719 C 43.03125 17.625 43.039062 17.714844 43.039062 17.714844 C 43.039062 17.714844 42.433594 17.765625 42.007812 17.757812 C 41.578125 17.746094 41.332031 17.6875 41.660156 17.617188 C 42.851562 17.398438 36.53125 17.257812 37.972656 17.6875 C 39.292969 18.074219 35.667969 18.113281 33.253906 18.222656 C 30.789062 18.332031 28.644531 18.550781 25.703125 18.429688 C 23.257812 18.332031 24.492188 18.09375 22.949219 17.972656 C 21.730469 17.875 18.789062 18.015625 17.707031 18.042969 C 14.65625 18.113281 12.152344 18.75 9.546875 18.730469 C 5.195312 18.6875 5.703125 17.964844 4.132812 17.964844 C 3.378906 17.964844 2.632812 18.132812 2.046875 18.132812 C 1.035156 18.132812 0.953125 17.945312 0.488281 17.945312 C 0.488281 17.945312 0.46875 17.765625 0.46875 17.476562 C 0.457031 17.148438 0.457031 17.121094 0.46875 16.652344 L 1.390625 16.652344 L 1.382812 15.242188 L 1.898438 15.242188 L 1.90625 15.839844 L 2.644531 15.839844 L 2.664062 14.191406 L 3.289062 14.191406 L 3.320312 16.316406 L 20.925781 16.058594 L 22.015625 16.058594 L 22.015625 15.273438 L 22.632812 15.273438 L 22.644531 14.171875 L 23.101562 14.171875 L 23.121094 15.769531 L 23.734375 15.769531 L 23.734375 16.335938 L 24.492188 16.335938 L 24.492188 15.261719 L 25.097656 15.253906 L 25.097656 15.5625 L 25.792969 15.5625 L 32.171875 15.789062 L 33.988281 15.789062 L 34.007812 15.242188 L 35.796875 15.234375 L 36.195312 15.234375 L 36.195312 14.011719 L 36.761719 14.011719 L 36.761719 14.695312 L 37.277344 14.695312 L 37.277344 15.589844 L 38.390625 15.589844 L 38.390625 16.296875 L 39.453125 16.304688 L 39.453125 15.898438 L 40.148438 15.898438 L 40.160156 15.589844 L 40.546875 15.601562 L 40.546875 16.335938 L 41.578125 16.34375 L 41.578125 16.773438 L 42.871094 16.773438 "
            fill-opacity="1" />
    </g>
    <path fill="#e7f6ff"
        d="M 17.734375 2.074219 C 17.289062 1.917969 17.914062 1.132812 18.769531 0.964844 C 19.621094 0.796875 20.070312 1.152344 20.070312 1.152344 C 20.070312 1.152344 20.566406 0.03125 22.058594 0.03125 C 23.457031 0.0195312 23.933594 1.230469 23.933594 1.230469 C 23.933594 1.230469 24.601562 0.882812 25.277344 0.953125 C 26.328125 1.074219 27.074219 1.96875 26.597656 2.117188 C 26.238281 2.234375 24.082031 2.246094 21.976562 2.226562 C 19.96875 2.195312 18.003906 2.164062 17.734375 2.074219 "
        fill-opacity="1" />
    <path fill="#e7f6ff"
        d="M 14.484375 5.9375 C 14.199219 5.839844 14.605469 5.324219 15.160156 5.214844 C 15.71875 5.105469 16.007812 5.332031 16.007812 5.332031 C 16.007812 5.332031 16.324219 4.609375 17.296875 4.597656 C 18.203125 4.597656 18.511719 5.382812 18.511719 5.382812 C 18.511719 5.382812 18.9375 5.15625 19.382812 5.203125 C 20.070312 5.285156 20.546875 5.859375 20.25 5.957031 C 20.019531 6.039062 18.609375 6.039062 17.25 6.027344 C 15.9375 6.019531 14.664062 6 14.484375 5.9375 "
        fill-opacity="1" />
    <path fill="#e7f6ff"
        d="M 31.238281 3.824219 C 30.910156 3.703125 31.375 3.117188 32 3 C 32.636719 2.871094 32.976562 3.140625 32.976562 3.140625 C 32.976562 3.140625 33.34375 2.304688 34.445312 2.304688 C 35.480469 2.292969 35.835938 3.199219 35.835938 3.199219 C 35.835938 3.199219 36.324219 2.941406 36.832031 2.988281 C 37.617188 3.078125 38.164062 3.734375 37.8125 3.855469 C 37.546875 3.941406 35.945312 3.941406 34.386719 3.933594 C 32.894531 3.914062 31.4375 3.894531 31.238281 3.824219 "
        fill-opacity="1" />
    <path fill="#ffcf6c"
        d="M 2.515625 17.539062 C 2.515625 17.386719 2.492188 17.019531 2.472656 16.632812 C 2.445312 16.039062 2.472656 15.292969 2.691406 14.984375 C 2.78125 14.867188 2.890625 14.6875 3 14.546875 C 3.257812 14.230469 3.546875 13.882812 3.785156 13.375 C 4.003906 12.890625 4.210938 12.394531 4.492188 11.964844 C 4.582031 11.828125 4.679688 11.648438 4.808594 11.53125 C 4.929688 11.421875 5.257812 11.171875 5.386719 11.082031 C 5.703125 10.882812 6.777344 10.65625 7.113281 10.605469 C 7.519531 10.546875 7.976562 10.488281 8.695312 10.4375 C 10.511719 10.308594 13.027344 10.238281 14.109375 10.515625 C 14.765625 10.675781 15.597656 11.140625 16.375 11.816406 C 16.980469 12.34375 17.527344 12.761719 17.875 13.15625 C 18.101562 13.417969 18.269531 13.792969 18.269531 13.792969 C 18.269531 13.792969 19.226562 14.152344 20.058594 14.589844 C 20.488281 14.816406 20.84375 15.085938 21.101562 15.285156 C 21.648438 15.699219 22.105469 16.582031 22.304688 17.546875 C 22.394531 18.015625 22.484375 18.539062 22.484375 19.007812 C 22.492188 19.542969 22.40625 20.011719 22.40625 20.011719 C 22.40625 20.011719 22.066406 21.0625 20.773438 21.460938 C 19.773438 21.765625 18.003906 21.828125 16.703125 21.835938 C 14.703125 21.855469 12.25 21.707031 10.96875 21.398438 C 10.203125 21.210938 10.085938 20.804688 10.085938 20.804688 L 7.640625 19.78125 C 7.640625 19.78125 7.453125 19.890625 7.300781 19.859375 C 7.023438 19.792969 6.25 19.472656 5.683594 19.1875 C 5.214844 18.949219 4.828125 18.628906 4.828125 18.628906 L 2.820312 17.992188 C 2.84375 17.992188 2.515625 17.835938 2.515625 17.539062 "
        fill-opacity="1" />
    <path fill="#9aaab8"
        d="M 2.890625 18.015625 C 2.863281 17.605469 2.832031 16.972656 2.871094 16.515625 C 2.890625 16.257812 2.960938 16.117188 3.011719 16.097656 C 3.160156 16.046875 3.367188 16.019531 3.546875 16.085938 C 3.726562 16.15625 3.996094 16.40625 4.152344 16.664062 C 4.480469 17.179688 4.539062 17.757812 4.660156 18.164062 C 4.710938 18.320312 4.839844 18.609375 4.839844 18.609375 C 4.839844 18.609375 4.800781 19.105469 4.660156 19.335938 C 4.5 19.613281 3.855469 19.59375 3.648438 19.53125 C 3.167969 19.414062 2.941406 18.710938 2.890625 18.015625 "
        fill-opacity="1" />
    <path fill="#99a9b8"
        d="M 7.511719 19.027344 C 7.511719 18.300781 7.582031 17.585938 7.789062 17.386719 C 8 17.191406 8.257812 17.269531 8.257812 17.269531 C 8.257812 17.269531 8.59375 17.625 8.792969 18.054688 C 8.824219 18.125 9.0625 18.570312 9.339844 18.925781 C 9.5 19.136719 9.738281 19.355469 9.816406 19.523438 C 9.964844 19.859375 9.984375 20.148438 10.023438 20.378906 C 10.054688 20.597656 10.085938 20.734375 10.085938 20.734375 C 10.085938 20.734375 10.003906 21.203125 9.984375 21.289062 C 9.894531 21.617188 9.785156 21.835938 9.5 21.90625 C 9.261719 21.964844 8.890625 21.984375 8.703125 21.957031 C 8.5625 21.9375 8.457031 21.867188 8.425781 21.867188 C 8.347656 21.867188 7.957031 21.660156 7.78125 21.121094 C 7.542969 20.476562 7.511719 19.425781 7.511719 19.027344 "
        fill-opacity="1" />
    <path fill="#b9ddf1"
        d="M 3.972656 13.476562 C 3.964844 13.347656 4.429688 12.421875 4.859375 11.835938 C 5.078125 11.53125 5.265625 11.359375 5.394531 11.351562 C 5.59375 11.332031 5.863281 11.402344 5.863281 11.402344 C 5.863281 11.402344 5.34375 12.382812 5.207031 12.722656 C 5.058594 13.078125 4.820312 13.851562 4.820312 13.851562 C 4.820312 13.851562 4.453125 13.773438 4.210938 13.664062 C 4.054688 13.613281 3.972656 13.566406 3.972656 13.476562 "
        fill-opacity="1" />
    <path fill="#b9ddf1"
        d="M 7.132812 11.28125 C 7.09375 11.023438 8.027344 10.964844 8.992188 10.882812 C 9.695312 10.824219 10.601562 10.746094 11.117188 10.746094 C 11.792969 10.746094 13.898438 10.683594 14.515625 10.816406 C 14.722656 10.855469 14.914062 10.972656 15.160156 11.121094 C 15.441406 11.292969 15.777344 11.507812 16.015625 11.699219 C 16.613281 12.144531 17.226562 12.660156 17.597656 13.058594 C 17.882812 13.367188 17.972656 13.605469 17.972656 13.664062 C 17.972656 13.8125 17.417969 13.683594 16.722656 13.714844 C 15.828125 13.753906 14.59375 13.765625 13.59375 13.804688 C 12.9375 13.824219 12.378906 13.882812 12.050781 13.882812 C 11.734375 13.882812 11.109375 13.933594 10.472656 13.980469 C 9.875 14.023438 9.269531 14.070312 8.914062 13.84375 C 8.605469 13.644531 8.257812 13.148438 7.957031 12.710938 C 7.5 12.046875 7.152344 11.410156 7.132812 11.28125 "
        fill-opacity="1" />
    <path fill="#b9ddf1"
        d="M 4.988281 13.941406 C 4.988281 13.941406 5.117188 13.355469 5.363281 12.761719 C 5.613281 12.164062 6.019531 11.507812 6.019531 11.507812 C 6.019531 11.507812 6.179688 11.539062 6.378906 11.667969 C 6.675781 11.867188 7.054688 12.234375 6.996094 12.632812 C 6.964844 12.832031 6.886719 13.722656 6.886719 13.722656 C 6.886719 13.722656 6.269531 13.753906 5.953125 13.863281 C 5.632812 13.972656 5.605469 14.121094 5.605469 14.121094 L 4.988281 13.941406 "
        fill-opacity="1" />
    <path fill="#ffffff"
        d="M 9.082031 15.3125 C 9.082031 14.875 9.457031 14.976562 10.152344 15.132812 C 10.511719 15.214844 11.355469 15.511719 12.089844 15.878906 C 12.984375 16.324219 13.800781 16.910156 13.808594 17.167969 C 13.832031 17.429688 12.03125 17.070312 11.238281 16.953125 C 10.691406 16.871094 10.035156 16.625 9.578125 16.1875 C 9.28125 15.878906 9.082031 15.492188 9.082031 15.3125 "
        fill-opacity="1" />
    <path fill="#ccd7e1"
        d="M 10.304688 20.296875 C 10.304688 20 10.382812 19.652344 10.898438 19.652344 C 11.078125 19.652344 11.394531 19.730469 11.792969 19.921875 C 12.609375 20.308594 13.570312 20.804688 13.570312 20.992188 C 13.570312 21.113281 13.195312 21.140625 12.796875 21.140625 C 12.230469 21.140625 11.503906 21.082031 11.175781 21.03125 C 10.601562 20.945312 10.304688 20.597656 10.304688 20.296875 "
        fill-opacity="1" />
    <path fill="#99a9b8"
        d="M 13.722656 19.125 C 13.722656 19.015625 13.871094 19.015625 14.179688 19.015625 C 14.625 19.015625 15.351562 19.046875 15.835938 19.046875 C 16.285156 19.046875 18.121094 19.058594 19.703125 18.898438 C 21.054688 18.769531 21.628906 18.570312 22.144531 18.511719 C 22.253906 18.5 22.316406 18.839844 22.234375 19.285156 C 22.207031 19.453125 22.085938 19.8125 21.957031 19.960938 C 21.828125 20.117188 21.667969 20.167969 21.320312 20.289062 C 20.527344 20.546875 19.214844 20.664062 17.992188 20.707031 C 16.613281 20.753906 15.339844 20.707031 15.011719 20.65625 C 14.1875 20.546875 13.722656 19.394531 13.722656 19.125 "
        fill-opacity="1" />
    <path fill="#99a9b8"
        d="M 13.472656 16.453125 C 13.472656 16.335938 13.859375 16.355469 14.367188 16.375 C 14.882812 16.394531 15.519531 16.425781 15.867188 16.425781 C 16.273438 16.425781 18.371094 16.394531 19.832031 16.246094 C 20.84375 16.136719 21.320312 15.871094 21.382812 15.949219 C 21.441406 16.027344 21.359375 16.214844 21.261719 16.503906 C 21.191406 16.703125 21.0625 17.050781 20.816406 17.179688 C 20.476562 17.359375 19.941406 17.4375 19.402344 17.507812 C 18.578125 17.617188 17.746094 17.667969 17.535156 17.667969 C 17.445312 17.667969 16.542969 17.707031 16.136719 17.667969 C 15.339844 17.597656 14.773438 17.539062 14.464844 17.410156 C 14.089844 17.238281 13.472656 16.574219 13.472656 16.453125 "
        fill-opacity="1" />
    <path fill="#99a9b8"
        d="M 14 21.757812 C 14 21.757812 14.136719 21.699219 14.246094 21.597656 C 14.464844 21.390625 14.496094 21.152344 15.011719 21.050781 C 15.320312 20.992188 17.316406 21.082031 18.945312 20.984375 C 19.921875 20.921875 20.804688 20.726562 20.804688 20.726562 C 20.804688 20.726562 20.644531 20.921875 20.546875 21.203125 C 20.4375 21.480469 20.367188 21.816406 20.367188 21.816406 C 20.367188 21.816406 19.941406 21.917969 19.433594 21.9375 C 18.648438 21.964844 18.449219 21.789062 18.449219 21.789062 C 18.449219 21.789062 17.445312 21.847656 16.484375 21.847656 C 15.3125 21.835938 14 21.757812 14 21.757812 "
        fill-opacity="1" />
    <path fill="#ffcf6c"
        d="M 6.875 13.722656 L 7.035156 12.523438 C 7.035156 12.523438 7.679688 13.84375 7.75 14.03125 C 7.820312 14.21875 7.988281 14.71875 7.691406 14.855469 C 7.273438 15.054688 6.191406 14.667969 6.082031 14.628906 C 5.921875 14.566406 5.832031 14.429688 5.832031 14.429688 L 6.777344 14.519531 C 6.777344 14.519531 7.0625 14.371094 7.09375 14.171875 C 7.113281 13.972656 6.875 13.722656 6.875 13.722656 "
        fill-opacity="1" />
    <path fill="#ffffff"
        d="M 21.640625 15.910156 C 21.640625 15.910156 21.578125 16.027344 21.421875 16.703125 C 21.371094 16.921875 21.410156 16.980469 21.570312 16.933594 C 21.75 16.871094 22.058594 16.671875 22.058594 16.671875 C 22.058594 16.671875 21.917969 16.355469 21.847656 16.214844 C 21.777344 16.085938 21.640625 15.910156 21.640625 15.910156 "
        fill-opacity="1" />
    <path fill="#384154"
        d="M 7.511719 18.640625 C 7.480469 18.640625 7.460938 18.621094 7.460938 18.589844 C 7.480469 18.152344 7.53125 17.804688 7.621094 17.578125 C 7.738281 17.25 7.929688 17.199219 8.246094 17.21875 C 8.277344 17.21875 8.296875 17.25 8.296875 17.269531 C 8.296875 17.296875 8.277344 17.320312 8.246094 17.320312 C 7.917969 17.296875 7.808594 17.367188 7.71875 17.605469 C 7.640625 17.835938 7.589844 18.164062 7.570312 18.589844 C 7.5625 18.609375 7.542969 18.640625 7.511719 18.640625 "
        fill-opacity="1" />
    <path fill="#384154"
        d="M 8.8125 22.027344 C 8.574219 22.027344 8.355469 21.945312 8.175781 21.796875 C 7.808594 21.5 7.589844 20.914062 7.511719 20.070312 C 7.472656 19.652344 7.441406 19.007812 7.460938 18.570312 C 7.460938 18.539062 7.492188 18.519531 7.511719 18.519531 C 7.542969 18.519531 7.5625 18.550781 7.5625 18.570312 C 7.542969 19.007812 7.570312 19.640625 7.609375 20.058594 C 7.679688 20.882812 7.898438 21.441406 8.238281 21.71875 C 8.433594 21.875 8.664062 21.945312 8.933594 21.917969 C 9 21.90625 9.0625 21.90625 9.128906 21.90625 C 9.4375 21.898438 9.726562 21.875 9.847656 21.5 C 9.90625 21.300781 9.976562 21.082031 10.003906 20.726562 C 10.003906 20.695312 10.035156 20.675781 10.054688 20.675781 C 10.085938 20.675781 10.105469 20.707031 10.105469 20.726562 C 10.074219 21.09375 10.003906 21.320312 9.945312 21.519531 C 9.804688 21.964844 9.449219 21.984375 9.140625 21.996094 C 9.070312 21.996094 9.011719 22.003906 8.941406 22.003906 C 8.902344 22.027344 8.863281 22.027344 8.8125 22.027344 "
        fill-opacity="1" />
    <path fill="#384154"
        d="M 7.371094 19.890625 C 7.34375 19.890625 7.324219 19.871094 7.324219 19.839844 C 7.324219 19.8125 7.3125 19.78125 7.3125 19.730469 C 7.28125 19.464844 7.214844 18.917969 7.242188 18.222656 C 7.242188 18.191406 7.261719 18.171875 7.292969 18.171875 C 7.324219 18.171875 7.34375 18.191406 7.34375 18.222656 C 7.3125 18.90625 7.371094 19.453125 7.410156 19.710938 C 7.421875 19.761719 7.421875 19.792969 7.421875 19.820312 C 7.421875 19.859375 7.402344 19.890625 7.371094 19.890625 "
        fill-opacity="1" />
    <path fill="#384154"
        d="M 14.136719 21.71875 C 13.175781 21.707031 12.339844 21.667969 11.792969 21.597656 L 11.773438 21.597656 C 11.257812 21.53125 10.5625 21.441406 10.175781 21.011719 C 9.976562 20.792969 9.945312 20.527344 9.914062 20.238281 C 9.875 19.921875 9.835938 19.59375 9.566406 19.285156 C 9.171875 18.839844 8.914062 18.390625 8.714844 18.023438 C 8.496094 17.625 8.316406 17.320312 8.078125 17.238281 C 7.917969 17.191406 7.789062 17.199219 7.679688 17.269531 C 7.492188 17.398438 7.382812 17.726562 7.351562 18.242188 C 7.351562 18.273438 7.324219 18.292969 7.300781 18.292969 C 7.273438 18.292969 7.253906 18.261719 7.253906 18.242188 C 7.28125 17.6875 7.410156 17.339844 7.628906 17.191406 C 7.757812 17.101562 7.917969 17.089844 8.105469 17.148438 C 8.386719 17.238281 8.574219 17.566406 8.804688 17.984375 C 9 18.339844 9.261719 18.796875 9.648438 19.226562 C 9.945312 19.554688 9.984375 19.910156 10.023438 20.226562 C 10.054688 20.496094 10.085938 20.753906 10.261719 20.945312 C 10.632812 21.351562 11.277344 21.429688 11.804688 21.5 L 11.824219 21.5 C 12.371094 21.570312 13.195312 21.609375 14.148438 21.617188 C 14.207031 21.617188 14.238281 21.570312 14.308594 21.46875 C 14.398438 21.332031 14.527344 21.132812 14.863281 21.023438 C 15.042969 20.964844 15.578125 20.964844 16.3125 20.972656 C 16.96875 20.984375 17.792969 20.984375 18.597656 20.945312 C 19.75 20.882812 20.992188 20.644531 21.3125 20.546875 C 21.46875 20.496094 21.601562 20.496094 21.699219 20.554688 C 21.859375 20.644531 21.886719 20.863281 21.90625 21.003906 C 21.917969 21.03125 21.917969 21.074219 21.925781 21.101562 C 21.9375 21.09375 21.949219 21.082031 21.957031 21.0625 C 22.335938 20.546875 22.445312 19.601562 22.453125 19.285156 C 22.472656 18.589844 22.335938 16.582031 21.382812 15.640625 C 21.359375 15.621094 21.359375 15.589844 21.382812 15.570312 C 21.402344 15.550781 21.429688 15.550781 21.449219 15.570312 C 22.621094 16.742188 22.554688 19.265625 22.554688 19.296875 C 22.542969 19.621094 22.425781 20.597656 22.035156 21.132812 C 21.996094 21.179688 21.957031 21.230469 21.898438 21.222656 C 21.839844 21.210938 21.828125 21.132812 21.808594 21.023438 C 21.789062 20.894531 21.757812 20.714844 21.640625 20.644531 C 21.570312 20.605469 21.460938 20.605469 21.332031 20.644531 C 21.011719 20.753906 19.761719 20.992188 18.597656 21.050781 C 17.792969 21.09375 16.96875 21.082031 16.3125 21.082031 C 15.609375 21.074219 15.050781 21.074219 14.894531 21.121094 C 14.585938 21.222656 14.476562 21.390625 14.386719 21.53125 C 14.316406 21.628906 14.257812 21.71875 14.136719 21.71875 "
        fill-opacity="1" />
    <path fill="#384154"
        d="M 7.453125 14.957031 C 7.402344 14.957031 7.34375 14.945312 7.273438 14.933594 C 7.023438 14.894531 6.585938 14.796875 6.128906 14.6875 C 6.101562 14.675781 6.089844 14.65625 6.089844 14.628906 C 6.101562 14.597656 6.121094 14.589844 6.148438 14.589844 C 6.597656 14.695312 7.035156 14.796875 7.28125 14.835938 C 7.480469 14.867188 7.628906 14.847656 7.710938 14.765625 C 7.828125 14.648438 7.800781 14.417969 7.789062 14.300781 L 7.789062 14.28125 C 7.75 14.003906 7.171875 12.742188 6.835938 12.203125 C 6.824219 12.183594 6.824219 12.15625 6.855469 12.136719 C 6.875 12.125 6.90625 12.125 6.925781 12.15625 C 7.253906 12.671875 7.847656 13.953125 7.890625 14.269531 L 7.890625 14.289062 C 7.910156 14.429688 7.9375 14.6875 7.78125 14.847656 C 7.710938 14.925781 7.589844 14.957031 7.453125 14.957031 "
        fill-opacity="1" />
    <path fill="#384154"
        d="M 2.871094 18.042969 C 2.863281 18.042969 2.863281 18.042969 2.851562 18.042969 C 2.554688 17.925781 2.472656 17.65625 2.453125 17.257812 C 2.425781 16.902344 2.425781 16.375 2.425781 16.304688 C 2.425781 15.433594 2.542969 15.015625 2.921875 14.578125 L 2.941406 14.546875 C 3.121094 14.339844 3.359375 14.050781 3.578125 13.734375 C 3.597656 13.714844 3.625 13.703125 3.648438 13.722656 C 3.667969 13.742188 3.675781 13.773438 3.65625 13.792969 C 3.4375 14.121094 3.191406 14.410156 3.011719 14.617188 L 2.992188 14.648438 C 2.632812 15.074219 2.523438 15.460938 2.523438 16.316406 C 2.523438 16.375 2.535156 16.902344 2.554688 17.257812 C 2.582031 17.6875 2.671875 17.863281 2.890625 17.953125 C 2.921875 17.964844 2.929688 17.992188 2.921875 18.015625 C 2.910156 18.035156 2.890625 18.042969 2.871094 18.042969 "
        fill-opacity="1" />
    <path fill="#384154"
        d="M 12.519531 10.773438 C 10.421875 10.773438 8.027344 10.953125 7.292969 11.152344 C 7.242188 11.171875 7.203125 11.191406 7.195312 11.222656 C 7.164062 11.292969 7.214844 11.410156 7.242188 11.46875 C 7.542969 12.085938 8.5625 13.496094 8.832031 13.703125 C 9.089844 13.914062 9.359375 13.921875 9.617188 13.933594 L 9.648438 13.933594 C 9.765625 13.941406 10.242188 13.914062 10.910156 13.863281 C 11.585938 13.824219 12.507812 13.765625 13.484375 13.722656 C 14.714844 13.664062 17.070312 13.636719 17.835938 13.644531 C 17.855469 13.644531 17.914062 13.644531 17.921875 13.613281 C 17.964844 13.515625 17.644531 13.097656 16.871094 12.421875 C 16.453125 12.066406 15.855469 11.617188 15.359375 11.300781 C 14.894531 11.003906 14.585938 10.855469 14.484375 10.855469 C 14.476562 10.855469 14.476562 10.855469 14.464844 10.855469 C 14.007812 10.816406 13.253906 10.773438 12.519531 10.773438 Z M 9.6875 14.042969 C 9.667969 14.042969 9.65625 14.042969 9.648438 14.042969 L 9.617188 14.042969 C 9.359375 14.03125 9.050781 14.023438 8.773438 13.792969 C 8.484375 13.566406 7.441406 12.097656 7.164062 11.53125 C 7.125 11.449219 7.054688 11.3125 7.105469 11.191406 C 7.132812 11.132812 7.183594 11.082031 7.273438 11.0625 C 8.019531 10.855469 10.414062 10.675781 12.519531 10.675781 C 13.265625 10.675781 14.027344 10.726562 14.496094 10.765625 C 14.507812 10.765625 14.507812 10.765625 14.515625 10.773438 C 14.664062 10.792969 14.992188 10.964844 15.410156 11.242188 C 15.917969 11.570312 16.511719 12.015625 16.941406 12.375 C 17.476562 12.839844 18.101562 13.445312 18.023438 13.675781 C 18.003906 13.714844 17.964844 13.765625 17.84375 13.765625 C 17.078125 13.753906 14.722656 13.785156 13.492188 13.84375 C 12.519531 13.894531 11.59375 13.941406 10.929688 13.980469 C 10.28125 14.011719 9.855469 14.042969 9.6875 14.042969 "
        fill-opacity="1" />
    <path fill="#384154"
        d="M 9.429688 15.042969 C 9.339844 15.042969 9.261719 15.054688 9.210938 15.085938 C 9.140625 15.125 9.121094 15.214844 9.128906 15.285156 C 9.140625 15.601562 9.507812 16.214844 10.3125 16.613281 C 11.039062 16.972656 13.613281 17.308594 13.769531 17.179688 C 13.769531 17.179688 13.769531 17.167969 13.769531 17.160156 C 13.722656 16.902344 12.546875 16 11.308594 15.5625 L 11.175781 15.511719 C 10.511719 15.292969 9.816406 15.042969 9.429688 15.042969 Z M 13.800781 17.230469 Z M 13.503906 17.308594 C 12.71875 17.308594 10.820312 16.980469 10.261719 16.703125 C 9.476562 16.316406 9.042969 15.679688 9.03125 15.285156 C 9.03125 15.152344 9.070312 15.042969 9.171875 14.996094 C 9.488281 14.816406 10.332031 15.113281 11.21875 15.421875 L 11.347656 15.472656 C 12.570312 15.898438 13.808594 16.832031 13.871094 17.140625 C 13.878906 17.199219 13.851562 17.230469 13.839844 17.25 C 13.789062 17.296875 13.671875 17.308594 13.503906 17.308594 "
        fill-opacity="1" />
    <path fill="#384154"
        d="M 19.851562 16.226562 Z M 13.769531 16.394531 C 13.75 16.394531 13.742188 16.394531 13.722656 16.394531 C 13.550781 16.40625 13.53125 16.433594 13.53125 16.433594 C 13.523438 16.445312 13.523438 16.503906 13.722656 16.703125 C 13.871094 16.851562 14.308594 17.269531 14.554688 17.378906 C 14.855469 17.507812 16.027344 17.667969 17.605469 17.597656 C 19.117188 17.539062 20.605469 17.277344 20.875 17.101562 C 21.011719 17.011719 21.132812 16.800781 21.242188 16.453125 L 21.253906 16.414062 C 21.300781 16.265625 21.382812 16.027344 21.359375 15.96875 C 21.339844 15.957031 21.242188 15.988281 21.132812 16.019531 C 20.894531 16.085938 20.496094 16.207031 19.851562 16.265625 C 18.140625 16.425781 17.527344 16.433594 16.175781 16.453125 L 16.09375 16.453125 C 15.160156 16.464844 14.554688 16.433594 14.15625 16.414062 C 14 16.40625 13.871094 16.394531 13.769531 16.394531 Z M 16.851562 17.726562 C 15.636719 17.726562 14.773438 17.597656 14.515625 17.488281 C 14.257812 17.378906 13.832031 16.980469 13.640625 16.78125 C 13.460938 16.59375 13.402344 16.496094 13.433594 16.414062 C 13.460938 16.324219 13.59375 16.316406 13.710938 16.304688 C 13.808594 16.304688 13.960938 16.304688 14.167969 16.324219 C 14.566406 16.34375 15.171875 16.386719 16.09375 16.367188 L 16.175781 16.367188 C 17.527344 16.34375 18.140625 16.335938 19.839844 16.175781 C 20.476562 16.117188 20.875 16.007812 21.113281 15.9375 C 21.320312 15.878906 21.421875 15.847656 21.460938 15.949219 C 21.492188 16.039062 21.441406 16.214844 21.351562 16.464844 L 21.339844 16.503906 C 21.222656 16.882812 21.082031 17.101562 20.933594 17.199219 C 20.644531 17.386719 19.164062 17.644531 17.617188 17.707031 C 17.335938 17.714844 17.089844 17.726562 16.851562 17.726562 "
        fill-opacity="1" />
    <path fill="#384154"
        d="M 16.273438 16.664062 C 14.714844 16.664062 13.542969 16.5625 13.511719 16.5625 C 13.484375 16.5625 13.460938 16.535156 13.460938 16.515625 C 13.460938 16.484375 13.492188 16.464844 13.511719 16.464844 C 13.5625 16.464844 18.339844 16.863281 21.359375 16.046875 C 21.390625 16.039062 21.410156 16.058594 21.421875 16.085938 C 21.429688 16.117188 21.410156 16.136719 21.382812 16.148438 C 19.859375 16.554688 17.863281 16.664062 16.273438 16.664062 "
        fill-opacity="1" />
    <path fill="#384154"
        d="M 16.214844 16.882812 C 14.714844 16.882812 13.679688 16.773438 13.660156 16.773438 C 13.632812 16.773438 13.613281 16.742188 13.621094 16.714844 C 13.621094 16.683594 13.652344 16.664062 13.679688 16.671875 C 13.722656 16.671875 17.585938 17.082031 21.3125 16.304688 C 21.339844 16.296875 21.359375 16.316406 21.371094 16.34375 C 21.382812 16.375 21.359375 16.394531 21.332031 16.40625 C 19.503906 16.78125 17.644531 16.882812 16.214844 16.882812 "
        fill-opacity="1" />
    <path fill="#384154"
        d="M 16.3125 17.109375 C 14.902344 17.109375 13.949219 17.011719 13.929688 17.011719 C 13.898438 17.011719 13.878906 16.980469 13.890625 16.953125 C 13.890625 16.921875 13.917969 16.902344 13.949219 16.910156 C 13.988281 16.910156 17.644531 17.296875 21.222656 16.554688 C 21.253906 16.542969 21.273438 16.5625 21.28125 16.59375 C 21.292969 16.625 21.273438 16.644531 21.242188 16.652344 C 19.464844 17.019531 17.675781 17.109375 16.3125 17.109375 "
        fill-opacity="1" />
    <path fill="#384154"
        d="M 16.363281 17.347656 C 15.050781 17.347656 14.1875 17.257812 14.179688 17.25 C 14.148438 17.25 14.128906 17.21875 14.136719 17.191406 C 14.136719 17.160156 14.167969 17.140625 14.199219 17.148438 C 14.226562 17.148438 17.554688 17.515625 21.121094 16.800781 C 21.152344 16.792969 21.171875 16.8125 21.183594 16.84375 C 21.191406 16.871094 21.171875 16.890625 21.140625 16.902344 C 19.363281 17.257812 17.644531 17.347656 16.363281 17.347656 "
        fill-opacity="1" />
    <path fill="#384154"
        d="M 16.730469 17.566406 C 15.429688 17.566406 14.515625 17.46875 14.496094 17.46875 C 14.464844 17.46875 14.445312 17.4375 14.457031 17.410156 C 14.457031 17.378906 14.484375 17.359375 14.515625 17.367188 C 14.546875 17.367188 17.882812 17.726562 20.945312 17.0625 C 20.972656 17.050781 20.992188 17.070312 21.003906 17.101562 C 21.011719 17.128906 20.992188 17.148438 20.964844 17.160156 C 19.472656 17.488281 17.933594 17.566406 16.730469 17.566406 "
        fill-opacity="1" />
    <path fill="#384154"
        d="M 11.199219 16.980469 C 11.175781 16.980469 11.15625 16.972656 11.148438 16.941406 C 11.136719 16.910156 11.15625 16.890625 11.175781 16.882812 C 11.503906 16.792969 11.722656 16.523438 11.703125 16.238281 C 11.695312 15.878906 11.347656 15.609375 10.917969 15.621094 C 10.78125 15.621094 10.582031 15.679688 10.453125 15.839844 C 10.351562 15.96875 10.3125 16.128906 10.351562 16.324219 C 10.363281 16.355469 10.34375 16.375 10.3125 16.386719 C 10.28125 16.394531 10.261719 16.375 10.253906 16.34375 C 10.214844 16.128906 10.253906 15.929688 10.371094 15.78125 C 10.523438 15.589844 10.761719 15.523438 10.917969 15.523438 C 11.394531 15.511719 11.785156 15.828125 11.804688 16.238281 C 11.8125 16.574219 11.566406 16.882812 11.199219 16.980469 C 11.207031 16.980469 11.199219 16.980469 11.199219 16.980469 "
        fill-opacity="1" />
    <path fill="#384154"
        d="M 12.738281 17.238281 C 12.726562 17.238281 12.707031 17.230469 12.699219 17.21875 C 12.675781 17.199219 12.675781 17.167969 12.707031 17.148438 C 12.828125 17.050781 12.886719 16.910156 12.875 16.761719 C 12.867188 16.496094 12.636719 16.285156 12.359375 16.304688 C 12.230469 16.316406 12.101562 16.367188 12.011719 16.464844 C 11.921875 16.5625 11.871094 16.683594 11.882812 16.8125 C 11.882812 16.902344 11.914062 16.980469 11.960938 17.0625 C 11.980469 17.082031 11.972656 17.109375 11.953125 17.128906 C 11.933594 17.148438 11.902344 17.140625 11.882812 17.121094 C 11.824219 17.03125 11.792969 16.933594 11.785156 16.824219 C 11.773438 16.664062 11.832031 16.515625 11.941406 16.40625 C 12.050781 16.285156 12.199219 16.226562 12.359375 16.214844 C 12.6875 16.207031 12.964844 16.453125 12.984375 16.773438 C 12.996094 16.953125 12.917969 17.121094 12.777344 17.238281 C 12.757812 17.238281 12.746094 17.238281 12.738281 17.238281 "
        fill-opacity="1" />
    <path fill="#384154"
        d="M 6.984375 19.78125 C 6.964844 19.78125 6.933594 19.761719 6.933594 19.742188 C 6.695312 18.113281 6.855469 17.257812 6.996094 16.496094 C 7.09375 15.96875 7.171875 15.523438 7.113281 14.894531 C 7.113281 14.867188 7.132812 14.847656 7.164062 14.847656 C 7.195312 14.847656 7.214844 14.867188 7.214844 14.894531 C 7.261719 15.53125 7.183594 16.007812 7.082031 16.523438 C 6.945312 17.277344 6.796875 18.125 7.023438 19.730469 C 7.035156 19.75 7.015625 19.773438 6.984375 19.78125 "
        fill-opacity="1" />
    <path fill="#384154"
        d="M 14.078125 19.078125 C 13.929688 19.078125 13.808594 19.085938 13.769531 19.125 C 13.730469 19.214844 14.070312 19.921875 14.4375 20.308594 C 14.765625 20.664062 15.390625 20.683594 17.21875 20.664062 C 19.214844 20.644531 21.578125 20.355469 21.898438 19.96875 C 22.175781 19.632812 22.265625 18.988281 22.207031 18.6875 C 22.1875 18.609375 22.167969 18.570312 22.144531 18.558594 C 22.125 18.558594 21.988281 18.589844 21.816406 18.621094 C 21.359375 18.71875 20.507812 18.898438 19.117188 19.007812 C 17.476562 19.144531 15.570312 19.105469 14.753906 19.085938 C 14.625 19.085938 14.527344 19.085938 14.464844 19.078125 C 14.398438 19.078125 14.335938 19.078125 14.265625 19.078125 C 14.199219 19.078125 14.136719 19.078125 14.078125 19.078125 Z M 16.464844 20.773438 C 15.171875 20.773438 14.664062 20.707031 14.355469 20.378906 C 14.058594 20.058594 13.550781 19.207031 13.699219 19.058594 C 13.789062 18.96875 13.988281 18.96875 14.265625 18.976562 C 14.328125 18.976562 14.398438 18.976562 14.464844 18.976562 C 14.527344 18.976562 14.625 18.976562 14.753906 18.988281 C 15.570312 19.007812 17.476562 19.046875 19.105469 18.90625 C 20.496094 18.796875 21.339844 18.621094 21.796875 18.519531 C 22.078125 18.460938 22.144531 18.449219 22.1875 18.46875 C 22.234375 18.5 22.277344 18.570312 22.296875 18.667969 C 22.355469 18.996094 22.265625 19.671875 21.96875 20.03125 C 21.578125 20.507812 18.957031 20.746094 17.207031 20.765625 C 16.929688 20.773438 16.679688 20.773438 16.464844 20.773438 "
        fill-opacity="1" />
    <path fill="#384154"
        d="M 15.527344 19.792969 C 14.703125 19.792969 14.089844 19.773438 13.929688 19.730469 C 13.898438 19.722656 13.890625 19.703125 13.890625 19.671875 C 13.898438 19.640625 13.917969 19.632812 13.949219 19.632812 C 14.15625 19.671875 15.421875 19.710938 17.03125 19.660156 C 18.332031 19.621094 20.734375 19.503906 22.207031 19.144531 C 22.234375 19.136719 22.253906 19.15625 22.265625 19.1875 C 22.277344 19.214844 22.253906 19.234375 22.226562 19.246094 C 20.746094 19.613281 18.332031 19.730469 17.03125 19.773438 C 16.492188 19.78125 15.984375 19.792969 15.527344 19.792969 "
        fill-opacity="1" />
    <path fill="#384154"
        d="M 15.5 19.960938 C 14.714844 19.960938 14.148438 19.941406 14.050781 19.921875 C 14.019531 19.910156 14.007812 19.890625 14.007812 19.859375 C 14.019531 19.832031 14.039062 19.820312 14.070312 19.820312 C 14.457031 19.902344 20.578125 19.890625 22.167969 19.316406 C 22.195312 19.304688 22.214844 19.316406 22.226562 19.34375 C 22.234375 19.375 22.226562 19.394531 22.195312 19.402344 C 20.992188 19.851562 17.507812 19.960938 15.5 19.960938 "
        fill-opacity="1" />
    <path fill="#384154"
        d="M 15.925781 20.140625 C 14.960938 20.140625 14.265625 20.109375 14.136719 20.078125 C 14.109375 20.070312 14.097656 20.050781 14.097656 20.019531 C 14.109375 19.988281 14.128906 19.980469 14.15625 19.980469 C 14.535156 20.058594 19.542969 20.160156 22.117188 19.492188 C 22.144531 19.484375 22.167969 19.503906 22.175781 19.53125 C 22.1875 19.5625 22.167969 19.582031 22.136719 19.59375 C 20.457031 20.03125 17.726562 20.140625 15.925781 20.140625 "
        fill-opacity="1" />
    <path fill="#384154"
        d="M 16.175781 20.328125 C 15.140625 20.328125 14.417969 20.277344 14.285156 20.25 C 14.257812 20.238281 14.246094 20.21875 14.246094 20.1875 C 14.257812 20.160156 14.277344 20.148438 14.308594 20.148438 C 14.625 20.21875 18.667969 20.40625 22.046875 19.671875 C 22.078125 19.660156 22.097656 19.683594 22.105469 19.710938 C 22.117188 19.742188 22.097656 19.761719 22.066406 19.773438 C 20.03125 20.226562 17.734375 20.328125 16.175781 20.328125 "
        fill-opacity="1" />
    <path fill="#384154"
        d="M 16.246094 20.507812 C 15.191406 20.507812 14.507812 20.445312 14.417969 20.425781 C 14.386719 20.417969 14.375 20.398438 14.375 20.367188 C 14.386719 20.335938 14.40625 20.328125 14.4375 20.328125 C 14.65625 20.378906 18.183594 20.625 21.988281 19.839844 C 22.015625 19.832031 22.035156 19.851562 22.046875 19.882812 C 22.058594 19.910156 22.035156 19.929688 22.007812 19.941406 C 19.800781 20.398438 17.683594 20.507812 16.246094 20.507812 "
        fill-opacity="1" />
    <path fill="#384154"
        d="M 16.273438 20.664062 C 15.398438 20.664062 14.804688 20.625 14.695312 20.605469 C 14.664062 20.597656 14.65625 20.574219 14.65625 20.546875 C 14.664062 20.515625 14.683594 20.507812 14.714844 20.507812 C 14.984375 20.566406 18.6875 20.707031 21.796875 20.058594 C 21.828125 20.050781 21.847656 20.070312 21.859375 20.097656 C 21.867188 20.128906 21.847656 20.148438 21.820312 20.160156 C 19.851562 20.566406 17.695312 20.664062 16.273438 20.664062 "
        fill-opacity="1" />
    <path fill="#384154"
        d="M 10.957031 19.851562 C 10.839844 19.851562 10.730469 19.890625 10.660156 19.980469 C 10.582031 20.078125 10.5625 20.207031 10.609375 20.308594 C 10.730469 20.535156 10.9375 20.574219 11.285156 20.65625 L 11.296875 20.65625 C 11.613281 20.726562 12.320312 20.726562 12.410156 20.605469 L 12.449219 20.636719 L 12.410156 20.605469 C 12.417969 20.496094 11.664062 20.058594 11.148438 19.890625 C 11.078125 19.859375 11.019531 19.851562 10.957031 19.851562 Z M 11.851562 20.792969 C 11.613281 20.792969 11.386719 20.773438 11.277344 20.746094 L 11.265625 20.746094 C 10.910156 20.664062 10.671875 20.617188 10.523438 20.347656 C 10.453125 20.21875 10.480469 20.039062 10.589844 19.910156 C 10.730469 19.75 10.949219 19.703125 11.1875 19.78125 C 11.554688 19.910156 12.441406 20.335938 12.507812 20.566406 C 12.519531 20.597656 12.507812 20.636719 12.488281 20.65625 C 12.410156 20.765625 12.132812 20.792969 11.851562 20.792969 "
        fill-opacity="1" />
    <path fill="#384154"
        d="M 8.433594 21.757812 C 8.433594 21.757812 8.425781 21.757812 8.433594 21.757812 C 8.394531 21.746094 8.386719 21.726562 8.386719 21.699219 C 8.683594 20.089844 8.296875 17.933594 7.910156 17.488281 C 7.890625 17.46875 7.890625 17.4375 7.910156 17.417969 C 7.929688 17.398438 7.957031 17.398438 7.976562 17.417969 C 8.386719 17.875 8.78125 20.070312 8.484375 21.707031 C 8.476562 21.746094 8.457031 21.757812 8.433594 21.757812 "
        fill-opacity="1" />
    <path fill="#384154"
        d="M 8.40625 21.648438 C 8.1875 21.648438 7.988281 21.339844 7.859375 20.792969 C 7.601562 19.722656 7.5625 17.945312 7.867188 17.605469 C 7.929688 17.546875 7.988281 17.539062 8.027344 17.546875 C 8.058594 17.546875 8.078125 17.578125 8.066406 17.605469 C 8.066406 17.636719 8.039062 17.65625 8.007812 17.644531 C 7.988281 17.644531 7.96875 17.644531 7.9375 17.675781 C 7.679688 17.964844 7.679688 19.671875 7.949219 20.773438 C 8.066406 21.269531 8.257812 21.578125 8.425781 21.550781 C 8.457031 21.539062 8.476562 21.558594 8.484375 21.589844 C 8.496094 21.617188 8.476562 21.636719 8.445312 21.648438 C 8.433594 21.648438 8.414062 21.648438 8.40625 21.648438 "
        fill-opacity="1" />
    <path fill="#384154"
        d="M 9.398438 21.976562 C 9.390625 21.976562 9.390625 21.976562 9.378906 21.976562 C 9.347656 21.964844 9.339844 21.9375 9.347656 21.917969 C 9.6875 21.074219 9.65625 19.988281 9.519531 19.246094 C 9.519531 19.214844 9.527344 19.195312 9.558594 19.1875 C 9.589844 19.1875 9.609375 19.195312 9.617188 19.226562 C 9.757812 19.980469 9.785156 21.09375 9.4375 21.945312 C 9.4375 21.964844 9.417969 21.976562 9.398438 21.976562 "
        fill-opacity="1" />
    <path fill="#384154"
        d="M 9.152344 21.984375 C 9.140625 21.984375 9.140625 21.984375 9.128906 21.984375 C 9.101562 21.976562 9.089844 21.945312 9.101562 21.925781 C 9.449219 21.0625 9.339844 19.464844 9.191406 18.808594 C 9.179688 18.777344 9.199219 18.757812 9.230469 18.75 C 9.261719 18.738281 9.28125 18.757812 9.289062 18.789062 C 9.4375 19.414062 9.566406 21.03125 9.199219 21.964844 C 9.191406 21.976562 9.171875 21.984375 9.152344 21.984375 "
        fill-opacity="1" />
    <path fill="#384154"
        d="M 8.84375 22.015625 C 8.832031 22.015625 8.832031 22.015625 8.824219 22.015625 C 8.792969 22.003906 8.78125 21.976562 8.792969 21.957031 C 9.140625 21.0625 9.050781 18.949219 8.734375 18.074219 C 8.722656 18.042969 8.734375 18.023438 8.761719 18.015625 C 8.792969 18.003906 8.8125 18.015625 8.824219 18.042969 C 9.152344 18.925781 9.238281 21.09375 8.882812 21.996094 C 8.882812 22.003906 8.863281 22.015625 8.84375 22.015625 "
        fill-opacity="1" />
    <path fill="#384154"
        d="M 8.464844 21.480469 C 8.464844 21.480469 8.457031 21.480469 8.464844 21.480469 C 8.375 21.46875 8.15625 21.371094 8.019531 20.773438 C 7.757812 19.691406 7.738281 18.023438 7.988281 17.765625 C 8.027344 17.714844 8.066406 17.714844 8.097656 17.714844 C 8.128906 17.714844 8.148438 17.746094 8.136719 17.777344 C 8.136719 17.804688 8.105469 17.824219 8.078125 17.816406 C 8.078125 17.816406 8.066406 17.816406 8.046875 17.824219 C 7.847656 18.042969 7.839844 19.652344 8.105469 20.746094 C 8.214844 21.191406 8.367188 21.359375 8.464844 21.378906 C 8.496094 21.378906 8.515625 21.410156 8.503906 21.441406 C 8.503906 21.460938 8.484375 21.480469 8.464844 21.480469 "
        fill-opacity="1" />
    <path fill="#384154"
        d="M 8.484375 19.773438 C 8.457031 19.773438 8.425781 19.761719 8.394531 19.730469 C 8.277344 19.621094 8.277344 19.273438 8.296875 19.175781 C 8.304688 19.144531 8.324219 19.136719 8.355469 19.136719 C 8.386719 19.144531 8.394531 19.164062 8.394531 19.195312 C 8.375 19.304688 8.394531 19.59375 8.464844 19.660156 C 8.476562 19.671875 8.484375 19.671875 8.484375 19.671875 C 8.515625 19.660156 8.535156 19.683594 8.542969 19.710938 C 8.554688 19.742188 8.535156 19.761719 8.503906 19.773438 C 8.503906 19.773438 8.496094 19.773438 8.484375 19.773438 "
        fill-opacity="1" />
    <path fill="#384154"
        d="M 5.585938 14.171875 L 5.574219 14.171875 C 5.226562 14.070312 4.847656 13.941406 4.570312 13.84375 C 4.5 13.824219 4.441406 13.804688 4.390625 13.785156 C 4.132812 13.695312 3.984375 13.636719 3.933594 13.535156 C 3.914062 13.484375 3.914062 13.425781 3.945312 13.355469 C 4.023438 13.179688 4.71875 11.617188 5.265625 11.339844 C 5.632812 11.164062 6.398438 11.578125 6.628906 11.796875 C 6.925781 12.074219 7.003906 12.324219 7.023438 12.453125 C 7.0625 12.691406 6.984375 13.207031 6.90625 13.722656 C 6.90625 13.753906 6.875 13.773438 6.847656 13.765625 C 6.816406 13.765625 6.796875 13.734375 6.804688 13.703125 C 6.886719 13.199219 6.953125 12.679688 6.925781 12.460938 C 6.90625 12.355469 6.835938 12.125 6.558594 11.867188 C 6.300781 11.628906 5.59375 11.28125 5.304688 11.429688 C 4.878906 11.640625 4.300781 12.769531 4.023438 13.394531 C 4.003906 13.445312 4.003906 13.476562 4.015625 13.496094 C 4.042969 13.554688 4.191406 13.613281 4.410156 13.695312 C 4.460938 13.714844 4.53125 13.734375 4.589844 13.753906 C 4.859375 13.851562 5.234375 13.980469 5.582031 14.070312 C 5.613281 14.082031 5.625 14.101562 5.613281 14.132812 C 5.625 14.160156 5.605469 14.171875 5.585938 14.171875 "
        fill-opacity="1" />
    <path fill="#384154"
        d="M 4.988281 13.972656 L 4.976562 13.972656 C 4.949219 13.960938 4.9375 13.941406 4.9375 13.914062 C 5.257812 12.679688 5.632812 12.035156 5.84375 11.6875 C 5.890625 11.609375 5.929688 11.539062 5.953125 11.488281 C 5.960938 11.46875 5.992188 11.460938 6.019531 11.46875 C 6.039062 11.480469 6.050781 11.507812 6.039062 11.539062 C 6.011719 11.597656 5.972656 11.660156 5.921875 11.746094 C 5.722656 12.085938 5.34375 12.722656 5.027344 13.941406 C 5.027344 13.960938 5.007812 13.972656 4.988281 13.972656 "
        fill-opacity="1" />
    <path fill="#384154"
        d="M 4.878906 13.753906 L 4.867188 13.753906 C 4.839844 13.742188 4.828125 13.722656 4.828125 13.695312 C 4.976562 13.070312 5.304688 12.285156 5.78125 11.441406 C 5.792969 11.421875 5.832031 11.402344 5.851562 11.421875 C 5.871094 11.429688 5.882812 11.460938 5.871094 11.480469 L 5.871094 11.488281 C 5.394531 12.324219 5.066406 13.097656 4.929688 13.722656 C 4.917969 13.734375 4.898438 13.753906 4.878906 13.753906 "
        fill-opacity="1" />
    <path fill="#384154"
        d="M 15.828125 16.277344 C 15.023438 16.277344 14.316406 16.257812 13.980469 16.238281 C 13.503906 16.207031 13.035156 16.109375 12.6875 15.976562 C 12.570312 15.9375 12.371094 15.839844 12.132812 15.730469 C 11.84375 15.601562 11.523438 15.453125 11.226562 15.324219 L 11.019531 15.234375 C 9.65625 14.675781 8.824219 14.320312 8.824219 14.070312 C 8.824219 14.042969 8.84375 14.023438 8.871094 14.023438 C 8.902344 14.023438 8.921875 14.042969 8.921875 14.070312 C 8.921875 14.269531 10.152344 14.777344 11.058594 15.144531 L 11.265625 15.234375 C 11.566406 15.351562 11.894531 15.5 12.171875 15.640625 C 12.410156 15.75 12.609375 15.839844 12.71875 15.890625 C 13.054688 16.019531 13.523438 16.109375 13.980469 16.148438 C 14.546875 16.1875 16.214844 16.214844 17.554688 16.148438 C 18.996094 16.078125 20.515625 15.976562 20.894531 15.828125 C 21.082031 15.757812 21.171875 15.671875 21.171875 15.5625 C 21.164062 15.066406 19.34375 14.269531 18.390625 13.921875 C 18.359375 13.914062 18.351562 13.882812 18.359375 13.863281 C 18.371094 13.832031 18.402344 13.824219 18.421875 13.832031 C 18.707031 13.941406 21.261719 14.886719 21.273438 15.5625 C 21.273438 15.710938 21.164062 15.828125 20.933594 15.917969 C 20.535156 16.078125 19.085938 16.167969 17.566406 16.246094 C 17.007812 16.265625 16.394531 16.277344 15.828125 16.277344 "
        fill-opacity="1" />
    <path fill="#384154"
        d="M 10.800781 20.875 C 10.800781 20.875 10.808594 20.875 10.800781 20.875 C 11.386719 21.074219 12.140625 21.082031 12.699219 21.09375 C 13.144531 21.101562 13.441406 21.042969 13.492188 21.023438 C 13.523438 21.011719 13.523438 21.003906 13.523438 21.003906 C 13.523438 21.003906 13.523438 20.992188 13.503906 20.964844 C 13.472656 20.894531 13.304688 20.792969 13.253906 20.765625 L 13.234375 20.753906 C 12.957031 20.574219 12.28125 20.238281 11.921875 20.050781 L 11.871094 20.019531 C 11.515625 19.839844 10.980469 19.5625 10.601562 19.773438 C 10.433594 19.859375 10.332031 20.089844 10.34375 20.316406 C 10.363281 20.457031 10.433594 20.726562 10.800781 20.875 Z M 12.757812 21.191406 C 12.738281 21.191406 12.71875 21.191406 12.6875 21.191406 C 12.132812 21.179688 11.367188 21.171875 10.769531 20.972656 C 10.769531 20.972656 10.769531 20.972656 10.761719 20.972656 C 10.761719 20.972656 10.761719 20.972656 10.75 20.972656 C 10.441406 20.855469 10.261719 20.617188 10.234375 20.328125 C 10.214844 20.058594 10.34375 19.800781 10.542969 19.691406 C 10.957031 19.453125 11.523438 19.742188 11.902344 19.941406 L 11.953125 19.96875 C 12.308594 20.160156 12.984375 20.496094 13.273438 20.675781 L 13.292969 20.683594 C 13.414062 20.753906 13.542969 20.84375 13.582031 20.921875 C 13.601562 20.964844 13.621094 21.003906 13.601562 21.050781 C 13.582031 21.09375 13.542969 21.121094 13.511719 21.132812 C 13.460938 21.132812 13.183594 21.191406 12.757812 21.191406 "
        fill-opacity="1" />
    <path fill="#384154"
        d="M 5.882812 13.941406 C 5.742188 14.003906 5.664062 14.070312 5.664062 14.152344 C 5.664062 14.21875 5.722656 14.289062 5.824219 14.339844 C 5.980469 14.417969 6.277344 14.4375 6.320312 14.4375 C 6.648438 14.460938 6.976562 14.449219 7.035156 14.179688 C 7.054688 14.109375 7.0625 13.960938 6.996094 13.863281 C 6.964844 13.8125 6.914062 13.792969 6.847656 13.785156 C 6.675781 13.773438 6.210938 13.824219 5.882812 13.941406 Z M 6.519531 14.539062 C 6.4375 14.539062 6.367188 14.527344 6.308594 14.527344 C 6.25 14.527344 5.953125 14.507812 5.773438 14.417969 C 5.632812 14.351562 5.554688 14.242188 5.554688 14.140625 C 5.554688 14.0625 5.605469 13.941406 5.832031 13.851562 C 6.179688 13.722656 6.65625 13.675781 6.835938 13.695312 C 6.933594 13.703125 7.003906 13.742188 7.054688 13.8125 C 7.144531 13.933594 7.132812 14.121094 7.113281 14.210938 C 7.0625 14.488281 6.757812 14.539062 6.519531 14.539062 "
        fill-opacity="1" />
    <path fill="#384154"
        d="M 7.042969 14.617188 C 6.90625 14.617188 6.746094 14.578125 6.605469 14.539062 C 6.578125 14.527344 6.566406 14.5 6.578125 14.480469 C 6.585938 14.449219 6.617188 14.4375 6.636719 14.449219 C 6.824219 14.5 7.082031 14.566406 7.203125 14.488281 C 7.3125 14.417969 7.410156 13.980469 7.371094 13.921875 C 7.34375 13.902344 7.234375 13.921875 7.113281 13.972656 C 7.082031 13.980469 7.0625 13.972656 7.042969 13.953125 C 7.035156 13.921875 7.042969 13.902344 7.0625 13.882812 C 7.144531 13.84375 7.332031 13.773438 7.433594 13.851562 C 7.460938 13.882812 7.472656 13.933594 7.472656 14.011719 C 7.460938 14.171875 7.382812 14.5 7.253906 14.578125 C 7.195312 14.609375 7.125 14.617188 7.042969 14.617188 "
        fill-opacity="1" />
    <path fill="#384154"
        d="M 6.082031 14.390625 C 5.953125 14.390625 5.8125 14.378906 5.691406 14.351562 C 5.664062 14.339844 5.652344 14.320312 5.652344 14.289062 C 5.664062 14.261719 5.683594 14.25 5.714844 14.25 C 6.230469 14.359375 6.835938 14.191406 7.042969 14.101562 C 7.074219 14.089844 7.09375 14.101562 7.113281 14.121094 C 7.125 14.152344 7.113281 14.171875 7.09375 14.191406 C 6.914062 14.269531 6.507812 14.390625 6.082031 14.390625 "
        fill-opacity="1" />
    <path fill="#384154"
        d="M 18.269531 13.832031 C 18.25 13.832031 18.230469 13.824219 18.222656 13.792969 C 18.183594 13.625 17.984375 13.347656 17.683594 13.039062 C 17.089844 12.402344 16.066406 11.558594 15.460938 11.191406 C 14.714844 10.734375 14.328125 10.554688 13.59375 10.46875 C 12.320312 10.308594 9.957031 10.398438 9.160156 10.449219 C 7.910156 10.527344 6.238281 10.753906 5.613281 11.023438 C 5.585938 11.03125 4.949219 11.320312 4.660156 11.789062 C 4.390625 12.234375 4.28125 12.433594 3.746094 13.574219 C 3.734375 13.605469 3.707031 13.613281 3.675781 13.59375 C 3.648438 13.585938 3.636719 13.554688 3.65625 13.527344 C 4.191406 12.375 4.300781 12.175781 4.570312 11.726562 C 4.867188 11.230469 5.496094 10.953125 5.574219 10.921875 C 6.21875 10.644531 7.859375 10.417969 9.152344 10.339844 C 9.957031 10.289062 12.320312 10.199219 13.601562 10.359375 C 14.355469 10.457031 14.765625 10.636719 15.507812 11.09375 C 16.125 11.46875 17.148438 12.324219 17.753906 12.960938 C 18.0625 13.277344 18.261719 13.574219 18.3125 13.753906 C 18.320312 13.785156 18.300781 13.804688 18.269531 13.8125 C 18.28125 13.832031 18.269531 13.832031 18.269531 13.832031 "
        fill-opacity="1" />
    <path fill="#384154"
        d="M 4.164062 16.773438 C 4.132812 16.773438 4.113281 16.753906 4.113281 16.722656 C 3.996094 15.492188 4.28125 14.957031 4.519531 14.519531 C 4.628906 14.320312 4.730469 14.132812 4.777344 13.902344 C 4.789062 13.875 4.808594 13.863281 4.839844 13.863281 C 4.867188 13.875 4.878906 13.894531 4.878906 13.921875 C 4.828125 14.171875 4.71875 14.359375 4.609375 14.566406 C 4.371094 15.015625 4.09375 15.511719 4.210938 16.714844 C 4.210938 16.742188 4.191406 16.761719 4.164062 16.773438 C 4.171875 16.773438 4.164062 16.773438 4.164062 16.773438 "
        fill-opacity="1" />
    <path fill="#384154"
        d="M 7.363281 19.921875 C 7.351562 19.921875 7.351562 19.921875 7.351562 19.921875 C 7.34375 19.921875 6.566406 19.671875 5.980469 19.382812 C 5.316406 19.058594 4.949219 18.816406 4.800781 18.621094 C 4.679688 18.460938 4.589844 18.09375 4.5 17.765625 C 4.472656 17.644531 4.441406 17.546875 4.421875 17.46875 C 4.210938 16.792969 3.945312 16.367188 3.605469 16.207031 C 3.40625 16.109375 3.191406 16.109375 2.941406 16.1875 C 2.910156 16.195312 2.890625 16.1875 2.882812 16.15625 C 2.871094 16.128906 2.882812 16.109375 2.910156 16.097656 C 3.179688 16 3.425781 16.007812 3.65625 16.117188 C 4.015625 16.296875 4.300781 16.742188 4.519531 17.4375 C 4.550781 17.515625 4.570312 17.625 4.601562 17.746094 C 4.679688 18.042969 4.777344 18.421875 4.878906 18.570312 C 5.015625 18.757812 5.375 18.988281 6.03125 19.304688 C 6.578125 19.574219 7.28125 19.800781 7.371094 19.832031 L 7.5 19.8125 C 7.53125 19.8125 7.550781 19.820312 7.5625 19.851562 C 7.5625 19.882812 7.550781 19.902344 7.519531 19.910156 L 7.363281 19.921875 C 7.371094 19.921875 7.363281 19.921875 7.363281 19.921875 "
        fill-opacity="1" />
    <path fill="#384154"
        d="M 3.863281 19.613281 C 3.675781 19.613281 3.507812 19.554688 3.367188 19.433594 C 3.089844 19.207031 2.910156 18.75 2.851562 18.09375 C 2.851562 18.054688 2.84375 18.003906 2.84375 17.953125 C 2.800781 17.558594 2.730469 16.890625 2.882812 16.296875 C 2.890625 16.265625 2.910156 16.257812 2.941406 16.257812 C 2.972656 16.265625 2.980469 16.285156 2.980469 16.316406 C 2.84375 16.902344 2.910156 17.546875 2.949219 17.945312 C 2.960938 17.992188 2.960938 18.042969 2.960938 18.082031 C 3.019531 18.710938 3.179688 19.136719 3.4375 19.355469 C 3.585938 19.472656 3.765625 19.523438 3.964844 19.503906 C 4.015625 19.492188 4.0625 19.492188 4.125 19.492188 C 4.351562 19.484375 4.570312 19.472656 4.667969 19.1875 C 4.71875 19.035156 4.769531 18.867188 4.789062 18.601562 C 4.789062 18.570312 4.820312 18.550781 4.839844 18.550781 C 4.867188 18.550781 4.886719 18.578125 4.886719 18.601562 C 4.867188 18.878906 4.808594 19.058594 4.757812 19.214844 C 4.648438 19.5625 4.371094 19.582031 4.125 19.59375 C 4.074219 19.59375 4.023438 19.59375 3.972656 19.601562 C 3.933594 19.601562 3.90625 19.613281 3.863281 19.613281 "
        fill-opacity="1" />
    <path fill="#384154"
        d="M 3.578125 19.402344 C 3.578125 19.402344 3.566406 19.402344 3.578125 19.402344 C 3.539062 19.394531 3.527344 19.375 3.527344 19.34375 C 3.753906 18.113281 3.457031 16.464844 3.160156 16.117188 C 3.140625 16.097656 3.140625 16.066406 3.160156 16.046875 C 3.179688 16.027344 3.210938 16.027344 3.230469 16.046875 C 3.539062 16.40625 3.855469 18.09375 3.617188 19.355469 C 3.617188 19.382812 3.597656 19.402344 3.578125 19.402344 "
        fill-opacity="1" />
    <path fill="#384154"
        d="M 3.546875 19.316406 C 3.378906 19.316406 3.210938 19.078125 3.109375 18.648438 C 2.910156 17.816406 2.882812 16.445312 3.121094 16.1875 C 3.167969 16.136719 3.21875 16.128906 3.25 16.136719 C 3.277344 16.136719 3.296875 16.167969 3.289062 16.195312 C 3.289062 16.226562 3.257812 16.246094 3.230469 16.238281 C 3.21875 16.238281 3.199219 16.238281 3.179688 16.257812 C 2.980469 16.476562 2.992188 17.785156 3.191406 18.628906 C 3.289062 19.066406 3.4375 19.234375 3.546875 19.214844 C 3.578125 19.207031 3.597656 19.226562 3.605469 19.253906 C 3.617188 19.285156 3.597656 19.304688 3.566406 19.316406 C 3.578125 19.316406 3.566406 19.316406 3.546875 19.316406 "
        fill-opacity="1" />
    <path fill="#384154"
        d="M 4.320312 19.574219 C 4.3125 19.574219 4.3125 19.574219 4.300781 19.574219 C 4.273438 19.5625 4.261719 19.53125 4.273438 19.511719 C 4.550781 18.816406 4.480469 17.855469 4.390625 17.398438 C 4.390625 17.367188 4.402344 17.347656 4.429688 17.339844 C 4.460938 17.339844 4.480469 17.347656 4.492188 17.378906 C 4.582031 17.84375 4.648438 18.828125 4.363281 19.554688 C 4.351562 19.5625 4.34375 19.574219 4.320312 19.574219 "
        fill-opacity="1" />
    <path fill="#384154"
        d="M 4.125 19.582031 C 4.113281 19.582031 4.113281 19.582031 4.101562 19.582031 C 4.074219 19.574219 4.0625 19.542969 4.074219 19.523438 C 4.332031 18.867188 4.273438 17.527344 4.0625 16.664062 C 4.054688 16.632812 4.074219 16.613281 4.101562 16.605469 C 4.132812 16.59375 4.152344 16.613281 4.164062 16.644531 C 4.382812 17.546875 4.441406 18.878906 4.171875 19.5625 C 4.164062 19.5625 4.144531 19.582031 4.125 19.582031 "
        fill-opacity="1" />
    <path fill="#384154"
        d="M 3.894531 19.601562 C 3.886719 19.601562 3.886719 19.601562 3.875 19.601562 C 3.84375 19.59375 3.835938 19.5625 3.84375 19.542969 C 4.09375 18.90625 4.074219 17.269531 3.695312 16.257812 C 3.6875 16.226562 3.695312 16.207031 3.726562 16.195312 C 3.753906 16.1875 3.777344 16.195312 3.785156 16.226562 C 4.144531 17.167969 4.222656 18.867188 3.933594 19.582031 C 3.933594 19.59375 3.914062 19.601562 3.894531 19.601562 "
        fill-opacity="1" />
    <path fill="#384154"
        d="M 3.597656 19.1875 C 3.515625 19.175781 3.347656 19.105469 3.238281 18.628906 C 3.039062 17.796875 3.03125 16.515625 3.21875 16.304688 C 3.257812 16.265625 3.289062 16.265625 3.320312 16.265625 C 3.347656 16.265625 3.367188 16.296875 3.359375 16.324219 C 3.359375 16.355469 3.328125 16.375 3.296875 16.367188 L 3.308594 16.316406 L 3.296875 16.367188 C 3.296875 16.367188 3.289062 16.367188 3.277344 16.386719 C 3.140625 16.605469 3.140625 17.796875 3.339844 18.609375 C 3.449219 19.058594 3.585938 19.085938 3.605469 19.085938 C 3.636719 19.085938 3.65625 19.117188 3.648438 19.144531 C 3.648438 19.164062 3.625 19.1875 3.597656 19.1875 "
        fill-opacity="1" />
    <path fill="#384154"
        d="M 3.617188 17.875 C 3.585938 17.875 3.566406 17.863281 3.546875 17.84375 C 3.457031 17.757812 3.457031 17.476562 3.46875 17.410156 C 3.476562 17.378906 3.496094 17.359375 3.527344 17.367188 C 3.558594 17.378906 3.566406 17.398438 3.566406 17.429688 C 3.546875 17.539062 3.585938 17.777344 3.625 17.777344 C 3.65625 17.765625 3.675781 17.785156 3.6875 17.816406 C 3.695312 17.84375 3.675781 17.863281 3.648438 17.875 C 3.625 17.875 3.617188 17.875 3.617188 17.875 "
        fill-opacity="1" />
    <path fill="#384154"
        d="M 21.492188 16.992188 C 21.449219 16.992188 21.421875 16.980469 21.390625 16.960938 C 21.320312 16.902344 21.339844 16.78125 21.371094 16.703125 C 21.390625 16.613281 21.421875 16.515625 21.449219 16.414062 C 21.511719 16.195312 21.578125 15.976562 21.578125 15.871094 C 21.578125 15.839844 21.601562 15.820312 21.628906 15.820312 C 21.660156 15.820312 21.679688 15.839844 21.679688 15.871094 C 21.679688 16 21.621094 16.214844 21.550781 16.445312 C 21.519531 16.535156 21.492188 16.632812 21.46875 16.722656 C 21.441406 16.851562 21.460938 16.882812 21.460938 16.882812 C 21.492188 16.910156 21.648438 16.851562 21.75 16.8125 C 21.898438 16.753906 22.035156 16.644531 22.035156 16.644531 C 22.058594 16.625 22.085938 16.632812 22.105469 16.652344 C 22.125 16.671875 22.117188 16.703125 22.097656 16.722656 C 22.085938 16.722656 21.949219 16.84375 21.777344 16.902344 C 21.667969 16.953125 21.570312 16.992188 21.492188 16.992188 "
        fill-opacity="1" />
    <path fill="#384154"
        d="M 16.234375 21.875 C 14.875 21.875 13.742188 21.808594 12.925781 21.738281 C 11.097656 21.570312 10.242188 21.3125 10.046875 20.875 C 10.035156 20.84375 10.046875 20.824219 10.074219 20.804688 C 10.105469 20.792969 10.125 20.804688 10.144531 20.835938 C 10.3125 21.230469 11.175781 21.480469 12.9375 21.636719 C 14.238281 21.757812 16.324219 21.867188 18.859375 21.699219 C 20.765625 21.570312 21.710938 21.289062 21.878906 21.132812 C 21.898438 21.113281 21.925781 21.113281 21.949219 21.132812 C 21.96875 21.152344 21.96875 21.179688 21.949219 21.203125 C 21.738281 21.398438 20.675781 21.679688 18.867188 21.796875 C 17.914062 21.855469 17.03125 21.875 16.234375 21.875 "
        fill-opacity="1" />
    <path fill="#384154"
        d="M 19.234375 21.964844 C 18.925781 21.964844 18.480469 21.945312 18.402344 21.828125 C 18.378906 21.808594 18.390625 21.777344 18.410156 21.757812 C 18.429688 21.738281 18.460938 21.746094 18.480469 21.765625 C 18.519531 21.816406 18.867188 21.886719 19.492188 21.867188 C 20.238281 21.835938 20.816406 21.699219 20.84375 21.539062 C 20.855469 21.507812 20.875 21.5 20.90625 21.5 C 20.933594 21.507812 20.945312 21.53125 20.945312 21.558594 C 20.875 21.898438 19.722656 21.957031 19.492188 21.964844 C 19.453125 21.964844 19.355469 21.964844 19.234375 21.964844 "
        fill-opacity="1" />
    <g clip-path="url(#id3)">
        <path fill="#ffedde"
            d="M 25.453125 19.066406 L 26.289062 17.359375 C 26.289062 17.359375 26.894531 16.40625 27.453125 15.523438 C 27.867188 14.867188 28.214844 14.191406 28.523438 14.308594 C 29.25 14.566406 28.542969 16.097656 27.949219 17.539062 C 27.492188 18.628906 27.164062 19.75 27.164062 19.75 C 27.164062 19.75 27.402344 19.960938 27.390625 20.417969 C 27.382812 20.863281 27.132812 21.558594 27.054688 21.945312 C 26.894531 22.742188 26.519531 22.9375 26.519531 22.9375 C 26.519531 22.9375 26.925781 23.632812 27.582031 23.027344 C 28.324219 22.34375 29.371094 20.378906 30.015625 20.945312 C 30.433594 21.3125 29.914062 21.90625 29.765625 22.332031 C 29.488281 23.148438 29.019531 23.914062 28.058594 25.273438 C 27.789062 25.648438 27.433594 26.175781 27.125 26.535156 C 26.417969 27.339844 25.535156 27.617188 24.957031 28.09375 C 24.382812 28.578125 24.105469 29.265625 24.105469 29.265625 C 24.105469 29.265625 22.582031 29.335938 21.09375 29.304688 C 19.601562 29.285156 18.132812 29.164062 18.132812 29.164062 C 18.132812 29.164062 19.097656 28.011719 19.652344 25.996094 C 20.097656 24.371094 20.03125 21.945312 20.773438 20.855469 C 21.3125 20.070312 21.796875 20.277344 22.375 20.050781 C 22.980469 19.8125 23.238281 19.464844 23.6875 19.355469 C 24.132812 19.246094 24.769531 19.375 24.769531 19.375 L 25.453125 19.066406 "
            fill-opacity="1" />
    </g>
    <path fill="#ffedde"
        d="M 31.863281 13.503906 L 33.351562 12.53125 C 33.351562 12.53125 33.542969 12.640625 33.710938 12.78125 C 33.878906 12.929688 34.046875 13.109375 34.046875 13.109375 C 34.046875 13.109375 34.15625 12.859375 33.980469 12.203125 C 33.890625 11.886719 33.53125 11.410156 33.492188 11.054688 C 33.433594 10.585938 33.441406 10.011719 33.601562 9.671875 C 33.761719 9.34375 33.949219 9.375 34.089844 9.425781 C 34.328125 9.503906 34.515625 9.992188 34.882812 10.425781 C 35.171875 10.773438 35.589844 11.09375 35.789062 11.589844 C 35.945312 11.976562 35.925781 12.484375 36.027344 12.980469 C 36.054688 13.148438 36.203125 13.742188 36.273438 14.023438 C 36.363281 14.417969 36.441406 14.777344 36.394531 15.234375 C 36.332031 15.738281 36.195312 17.109375 36.183594 18.242188 C 36.183594 18.839844 36.203125 19.363281 36.273438 19.640625 C 36.363281 19.980469 36.414062 20.089844 36.511719 20.386719 C 36.878906 21.441406 37.386719 22.355469 37.804688 23.207031 C 38.660156 24.984375 39.234375 26.1875 39.234375 26.1875 C 39.234375 26.1875 38.550781 26.625 37.226562 27.089844 C 35.90625 27.554688 33.949219 28.042969 33.949219 28.042969 C 33.949219 28.042969 33.582031 26.839844 32.867188 25.273438 C 32.570312 24.617188 32.152344 23.832031 31.765625 23.136719 C 31.476562 22.632812 31.15625 22.394531 30.890625 22.136719 C 30.550781 21.808594 30.152344 21.371094 29.816406 20.921875 C 29.449219 20.4375 29.179688 19.882812 28.941406 19.324219 C 28.804688 18.996094 28.664062 18.621094 28.664062 18.621094 L 26.320312 16.800781 C 26.320312 16.800781 26.0625 16.773438 25.832031 16.59375 C 25.652344 16.445312 25.472656 16.207031 25.496094 16.039062 C 25.542969 15.421875 26.429688 15.285156 26.429688 15.285156 L 26.457031 15.085938 C 26.457031 15.085938 26.121094 15.273438 25.832031 15.222656 C 25.632812 15.183594 25.472656 15.023438 25.445312 14.746094 C 25.425781 14.558594 25.59375 14.179688 25.882812 13.933594 C 26.179688 13.683594 26.597656 13.527344 26.597656 13.527344 L 26.628906 13.328125 C 26.628906 13.328125 26.339844 13.316406 26.109375 13.199219 C 25.960938 13.117188 25.832031 12.96875 25.832031 12.839844 C 25.832031 12.660156 25.871094 12.523438 25.992188 12.402344 C 26.257812 12.105469 26.765625 11.9375 26.765625 11.9375 L 26.757812 11.789062 C 26.757812 11.789062 26.527344 11.808594 26.367188 11.660156 C 26.289062 11.578125 26.210938 11.390625 26.210938 11.242188 C 26.199219 10.792969 26.894531 10.449219 26.894531 10.449219 L 31.863281 13.503906 "
        fill-opacity="1" />
    <path fill="#6f899e"
        d="M 27.363281 5.351562 C 27.363281 5.351562 27.453125 5.074219 27.628906 4.964844 C 27.808594 4.847656 28.078125 4.875 28.078125 4.875 L 33.632812 5.371094 C 33.632812 5.371094 33.851562 5.421875 33.929688 5.5625 C 34.007812 5.699219 33.96875 5.9375 33.96875 5.9375 L 33.652344 9.5625 C 33.652344 9.5625 33.503906 9.832031 33.472656 10.21875 C 33.441406 10.597656 33.503906 11.121094 33.503906 11.121094 L 33.054688 15.730469 C 33.054688 15.730469 32.707031 16.5625 32.429688 17.367188 C 32.152344 18.171875 31.960938 18.957031 31.960938 18.957031 L 27.582031 18.539062 C 27.582031 18.539062 27.589844 18.429688 27.730469 18.054688 C 28.027344 17.269531 28.722656 15.949219 28.863281 15.105469 C 28.941406 14.648438 28.871094 14.191406 28.34375 14.132812 C 27.820312 14.070312 26.289062 17.359375 26.289062 17.359375 L 27.363281 5.351562 "
        fill-opacity="1" />
    <path fill="#ffffff"
        d="M 27.53125 5.523438 C 27.53125 5.523438 27.570312 5.292969 27.679688 5.195312 C 27.789062 5.09375 27.988281 5.074219 27.988281 5.074219 L 29.371094 5.203125 L 29.636719 5.433594 L 29.925781 5.472656 L 31.574219 5.609375 L 31.765625 5.570312 L 31.960938 5.441406 L 33.53125 5.5625 C 33.53125 5.5625 33.679688 5.601562 33.742188 5.710938 C 33.800781 5.820312 33.78125 6.007812 33.78125 6.007812 L 32.828125 16.238281 C 32.828125 16.238281 32.578125 16.882812 32.390625 17.496094 C 32.199219 18.113281 32.042969 18.6875 32.042969 18.6875 L 27.640625 18.28125 C 27.640625 18.28125 28.285156 16.800781 28.625 15.738281 C 28.761719 15.3125 28.84375 14.847656 28.824219 14.71875 C 28.761719 14.390625 28.523438 14.160156 28.324219 14.339844 C 28.246094 14.410156 28.066406 14.566406 27.976562 14.6875 C 27.699219 15.042969 27.472656 15.511719 27.191406 15.949219 C 26.824219 16.523438 26.507812 16.941406 26.507812 16.941406 L 27.53125 5.523438 "
        fill-opacity="1" />
    <path fill="#aad896"
        d="M 27.371094 14.894531 C 27.324219 14.628906 27.441406 14.109375 27.441406 14.109375 C 27.441406 14.109375 27.5 13.960938 27.601562 13.894531 C 27.699219 13.8125 27.839844 13.8125 27.839844 13.8125 L 31.742188 14.179688 C 31.742188 14.179688 31.921875 14.199219 32.03125 14.300781 C 32.132812 14.398438 32.152344 14.589844 32.152344 14.589844 L 32.113281 15.242188 C 32.113281 15.242188 32.050781 15.402344 31.953125 15.480469 C 31.84375 15.5625 31.695312 15.582031 31.695312 15.582031 L 28.773438 15.332031 C 28.773438 15.332031 28.863281 14.886719 28.773438 14.589844 C 28.734375 14.429688 28.566406 14.320312 28.476562 14.308594 C 28.1875 14.269531 27.640625 15.195312 27.640625 15.195312 C 27.640625 15.195312 27.410156 15.164062 27.371094 14.894531 "
        fill-opacity="1" />
    <path fill="#c8d1e5"
        d="M 27.601562 12.265625 C 27.609375 12.144531 27.847656 12.015625 28.316406 11.945312 C 28.734375 11.886719 29.339844 11.886719 29.957031 11.9375 C 31.257812 12.035156 32.328125 12.414062 32.308594 12.632812 C 32.300781 12.703125 32.308594 12.800781 32.171875 12.859375 C 31.824219 13.007812 31.019531 13.078125 30.105469 13.007812 C 29.417969 12.949219 28.742188 12.839844 28.277344 12.679688 C 27.839844 12.550781 27.589844 12.375 27.601562 12.265625 "
        fill-opacity="1" />
    <path fill="#8a98b7"
        d="M 27.988281 12.214844 C 28.027344 12.027344 28.554688 12.066406 29.179688 12.074219 C 29.5 12.085938 29.828125 12.125 30.132812 12.125 C 30.371094 12.125 30.582031 12.164062 30.800781 12.195312 C 31.4375 12.285156 31.941406 12.472656 31.941406 12.601562 C 31.941406 12.769531 31.308594 12.78125 30.371094 12.75 C 29.347656 12.722656 27.949219 12.402344 27.988281 12.214844 "
        fill-opacity="1" />
    <path fill="#ffffff"
        d="M 10.234375 3.367188 C 10.71875 3.328125 11.257812 3.703125 11.285156 4.152344 C 11.316406 4.609375 11.097656 5.066406 10.394531 5.195312 C 9.914062 5.273438 9.398438 4.828125 9.339844 4.332031 C 9.289062 3.882812 9.746094 3.40625 10.234375 3.367188 Z M 10.273438 2.503906 C 9.726562 2.503906 9.160156 2.761719 8.804688 3.199219 C 8.515625 3.554688 8.367188 3.953125 8.386719 4.519531 C 8.394531 4.976562 8.734375 5.988281 9.128906 6.8125 C 9.648438 7.875 10.242188 8.738281 10.242188 8.738281 C 10.242188 8.738281 11.019531 7.65625 11.59375 6.414062 C 11.921875 5.691406 12.179688 4.757812 12.179688 4.371094 C 12.179688 3.875 11.980469 3.425781 11.664062 3.097656 C 11.316406 2.722656 10.800781 2.503906 10.273438 2.503906 "
        fill-opacity="1" />
    <path fill="#384154"
        d="M 39.226562 26.234375 C 39.207031 26.234375 39.183594 26.226562 39.175781 26.207031 C 38.886719 25.582031 38.511719 24.804688 38.113281 23.980469 C 37.207031 22.144531 36.273438 20.238281 36.183594 19.484375 C 36.09375 18.777344 36.117188 17.367188 36.183594 16.625 C 36.203125 16.414062 36.226562 16.226562 36.253906 16.046875 C 36.304688 15.648438 36.355469 15.285156 36.332031 14.828125 C 36.3125 14.429688 36.15625 13.675781 36.035156 13.277344 C 35.957031 12.988281 35.917969 12.703125 35.875 12.421875 C 35.828125 12.046875 35.777344 11.6875 35.628906 11.429688 C 35.507812 11.222656 35.320312 11.023438 35.132812 10.824219 C 34.992188 10.683594 34.855469 10.535156 34.753906 10.386719 C 34.664062 10.269531 34.59375 10.148438 34.515625 10.03125 C 34.265625 9.632812 34.097656 9.382812 33.839844 9.484375 C 33.503906 9.601562 33.460938 10.695312 33.550781 11.082031 C 33.613281 11.351562 33.691406 11.480469 33.789062 11.640625 C 33.859375 11.757812 33.9375 11.898438 34.019531 12.097656 C 34.21875 12.632812 34.15625 13.824219 34.046875 14.179688 C 33.929688 14.546875 33.742188 14.828125 33.53125 15.113281 C 33.421875 15.261719 33.3125 15.414062 33.214844 15.589844 C 32.867188 16.1875 32.546875 17.148438 32.320312 17.84375 L 32.28125 17.953125 C 32.140625 18.371094 31.921875 19.433594 31.914062 19.949219 C 31.914062 19.980469 31.894531 20 31.863281 20 C 31.832031 20 31.8125 19.980469 31.8125 19.949219 C 31.824219 19.425781 32.042969 18.351562 32.179688 17.925781 L 32.21875 17.816406 C 32.449219 17.109375 32.765625 16.148438 33.125 15.542969 C 33.222656 15.363281 33.332031 15.214844 33.441406 15.066406 C 33.640625 14.785156 33.832031 14.519531 33.9375 14.160156 C 34.046875 13.824219 34.097656 12.652344 33.910156 12.144531 C 33.839844 11.945312 33.761719 11.816406 33.691406 11.699219 C 33.601562 11.539062 33.511719 11.390625 33.441406 11.113281 C 33.34375 10.695312 33.375 9.554688 33.789062 9.40625 C 34.136719 9.273438 34.347656 9.613281 34.585938 9.992188 C 34.65625 10.109375 34.734375 10.230469 34.8125 10.347656 C 34.914062 10.488281 35.050781 10.625 35.191406 10.773438 C 35.378906 10.972656 35.578125 11.183594 35.699219 11.402344 C 35.855469 11.679688 35.90625 12.046875 35.957031 12.433594 C 35.996094 12.710938 36.035156 12.988281 36.117188 13.265625 C 36.226562 13.664062 36.394531 14.429688 36.414062 14.835938 C 36.433594 15.304688 36.382812 15.679688 36.332031 16.078125 C 36.3125 16.257812 36.285156 16.445312 36.265625 16.652344 C 36.195312 17.386719 36.183594 18.789062 36.265625 19.492188 C 36.355469 20.238281 37.328125 22.214844 38.183594 23.960938 C 38.578125 24.777344 38.964844 25.550781 39.246094 26.1875 C 39.253906 26.214844 39.246094 26.234375 39.214844 26.257812 C 39.246094 26.234375 39.234375 26.234375 39.226562 26.234375 "
        fill-opacity="1" />
    <path fill="#384154"
        d="M 34.089844 13.226562 C 34.070312 13.226562 34.058594 13.21875 34.046875 13.207031 C 33.859375 12.941406 33.332031 12.570312 33.324219 12.5625 C 33.304688 12.542969 33.292969 12.511719 33.3125 12.492188 C 33.332031 12.472656 33.363281 12.460938 33.382812 12.484375 C 33.402344 12.503906 33.929688 12.871094 34.128906 13.148438 C 34.148438 13.167969 34.136719 13.199219 34.117188 13.21875 C 34.109375 13.226562 34.097656 13.226562 34.089844 13.226562 "
        fill-opacity="1" />
    <path fill="#384154"
        d="M 26.675781 11.828125 C 26.46875 11.828125 26.289062 11.660156 26.238281 11.570312 C 26.148438 11.410156 26.128906 11.25 26.171875 11.09375 C 26.238281 10.84375 26.46875 10.617188 26.855469 10.417969 C 26.875 10.40625 26.90625 10.417969 26.925781 10.4375 C 26.933594 10.457031 26.925781 10.488281 26.90625 10.507812 C 26.546875 10.695312 26.328125 10.902344 26.269531 11.121094 C 26.230469 11.25 26.25 11.390625 26.328125 11.519531 C 26.367188 11.589844 26.546875 11.769531 26.746094 11.71875 C 26.777344 11.707031 26.796875 11.726562 26.804688 11.757812 C 26.816406 11.789062 26.796875 11.808594 26.765625 11.816406 C 26.734375 11.816406 26.707031 11.828125 26.675781 11.828125 "
        fill-opacity="1" />
    <path fill="#384154"
        d="M 26.605469 13.375 C 26.4375 13.367188 26.039062 13.308594 25.863281 13.058594 C 25.773438 12.929688 25.753906 12.769531 25.800781 12.59375 C 25.902344 12.246094 26.367188 12.015625 26.734375 11.878906 C 26.765625 11.867188 26.785156 11.878906 26.796875 11.90625 C 26.804688 11.9375 26.796875 11.957031 26.765625 11.964844 C 26.476562 12.074219 25.992188 12.292969 25.890625 12.621094 C 25.851562 12.769531 25.863281 12.898438 25.929688 13 C 26.082031 13.21875 26.449219 13.265625 26.597656 13.277344 C 26.628906 13.277344 26.648438 13.308594 26.648438 13.328125 C 26.65625 13.355469 26.628906 13.375 26.605469 13.375 "
        fill-opacity="1" />
    <path fill="#384154"
        d="M 25.960938 15.273438 C 25.902344 15.273438 25.851562 15.261719 25.792969 15.253906 C 25.632812 15.222656 25.523438 15.144531 25.472656 15.035156 C 25.335938 14.757812 25.433594 14.339844 25.742188 13.992188 C 26.0625 13.636719 26.578125 13.464844 26.597656 13.464844 C 26.628906 13.457031 26.648438 13.476562 26.65625 13.496094 C 26.667969 13.515625 26.648438 13.546875 26.628906 13.554688 C 26.617188 13.554688 26.109375 13.722656 25.8125 14.0625 C 25.496094 14.417969 25.453125 14.785156 25.554688 14.984375 C 25.605469 15.09375 25.722656 15.132812 25.8125 15.152344 C 26.019531 15.195312 26.308594 15.132812 26.449219 15.015625 C 26.46875 14.996094 26.496094 14.996094 26.519531 15.023438 C 26.539062 15.042969 26.539062 15.074219 26.507812 15.09375 C 26.386719 15.214844 26.160156 15.273438 25.960938 15.273438 "
        fill-opacity="1" />
    <path fill="#384154"
        d="M 29.746094 20.894531 C 29.726562 20.894531 29.71875 20.882812 29.707031 20.875 C 29.320312 20.367188 28.941406 19.433594 28.742188 18.925781 C 28.703125 18.839844 28.671875 18.757812 28.652344 18.710938 C 28.644531 18.679688 28.652344 18.660156 28.683594 18.640625 C 28.714844 18.628906 28.734375 18.640625 28.753906 18.667969 C 28.773438 18.71875 28.804688 18.796875 28.84375 18.886719 C 29.03125 19.355469 29.417969 20.316406 29.796875 20.8125 C 29.816406 20.835938 29.804688 20.863281 29.785156 20.882812 C 29.765625 20.894531 29.757812 20.894531 29.746094 20.894531 "
        fill-opacity="1" />
    <path fill="#384154"
        d="M 33.949219 28.0625 C 33.929688 28.0625 33.910156 28.054688 33.898438 28.023438 C 33.351562 26.148438 31.921875 23.4375 31.644531 23.019531 C 31.476562 22.75 31.15625 22.441406 30.859375 22.144531 C 30.582031 21.867188 30.28125 21.578125 30.113281 21.332031 C 30.09375 21.3125 30.105469 21.28125 30.125 21.261719 C 30.144531 21.242188 30.175781 21.25 30.195312 21.269531 C 30.363281 21.519531 30.652344 21.796875 30.929688 22.074219 C 31.238281 22.375 31.554688 22.691406 31.734375 22.960938 C 32.011719 23.375 33.453125 26.105469 34 27.992188 C 34.007812 28.023438 33.988281 28.042969 33.96875 28.054688 C 33.960938 28.0625 33.949219 28.0625 33.949219 28.0625 "
        fill-opacity="1" />
    <path fill="#384154"
        d="M 26.300781 16.863281 C 26.289062 16.863281 26.289062 16.863281 26.300781 16.863281 C 25.871094 16.800781 25.453125 16.464844 25.484375 16 C 25.523438 15.351562 26.410156 15.222656 26.449219 15.214844 C 26.476562 15.214844 26.496094 15.234375 26.507812 15.253906 C 26.507812 15.285156 26.488281 15.304688 26.46875 15.3125 C 26.457031 15.3125 25.625 15.441406 25.59375 16 C 25.574219 16.394531 25.953125 16.703125 26.320312 16.753906 C 26.347656 16.753906 26.367188 16.78125 26.359375 16.8125 C 26.339844 16.84375 26.320312 16.863281 26.300781 16.863281 "
        fill-opacity="1" />
    <path fill="#384154"
        d="M 31.992188 19.007812 L 27.570312 18.601562 C 27.539062 18.601562 27.519531 18.570312 27.519531 18.550781 C 27.519531 18.519531 27.550781 18.5 27.570312 18.5 L 31.980469 18.90625 C 32.011719 18.90625 32.03125 18.9375 32.03125 18.957031 C 32.042969 18.988281 32.011719 19.007812 31.992188 19.007812 "
        fill-opacity="1" />
    <path fill="#384154"
        d="M 26.269531 17.429688 C 26.238281 17.429688 26.21875 17.398438 26.21875 17.378906 L 26.6875 12.265625 C 26.6875 12.234375 26.714844 12.214844 26.734375 12.214844 C 26.765625 12.214844 26.785156 12.246094 26.785156 12.265625 L 26.765625 12.523438 L 26.320312 17.378906 C 26.320312 17.410156 26.300781 17.429688 26.269531 17.429688 "
        fill-opacity="1" />
    <path fill="#384154"
        d="M 26.734375 12.304688 C 26.707031 12.304688 26.6875 12.273438 26.6875 12.253906 L 26.824219 10.707031 L 27.28125 5.5625 C 27.300781 5.402344 27.332031 5.132812 27.492188 4.984375 C 27.691406 4.796875 27.910156 4.816406 28.058594 4.828125 L 28.078125 4.828125 L 33.523438 5.304688 C 33.652344 5.324219 33.820312 5.34375 33.929688 5.492188 C 34.039062 5.640625 34.019531 5.828125 34.007812 5.980469 L 34.007812 6.027344 L 33.671875 9.625 C 33.671875 9.652344 33.640625 9.671875 33.621094 9.671875 C 33.589844 9.671875 33.570312 9.644531 33.570312 9.625 L 33.917969 5.980469 C 33.929688 5.839844 33.9375 5.671875 33.859375 5.5625 C 33.769531 5.441406 33.640625 5.433594 33.523438 5.414062 L 33.503906 5.414062 L 28.066406 4.9375 C 27.917969 4.925781 27.75 4.90625 27.570312 5.066406 C 27.441406 5.183594 27.410156 5.433594 27.390625 5.570312 L 26.933594 10.714844 L 26.796875 12.265625 C 26.785156 12.285156 26.765625 12.304688 26.734375 12.304688 "
        fill-opacity="1" />
    <path fill="#384154"
        d="M 33.046875 15.828125 C 33.015625 15.828125 32.996094 15.800781 32.996094 15.78125 L 33.441406 11.054688 C 33.441406 11.023438 33.472656 11.003906 33.492188 11.003906 C 33.523438 11.003906 33.542969 11.03125 33.542969 11.054688 L 33.09375 15.78125 C 33.09375 15.808594 33.066406 15.828125 33.046875 15.828125 "
        fill-opacity="1" />
    <path fill="#384154"
        d="M 32.03125 18.757812 L 32 18.757812 L 27.660156 18.351562 L 27.660156 18.300781 L 27.671875 18.253906 L 32.042969 18.660156 C 32.070312 18.660156 32.089844 18.6875 32.089844 18.710938 C 32.070312 18.738281 32.050781 18.757812 32.03125 18.757812 "
        fill-opacity="1" />
    <path fill="#384154"
        d="M 26.488281 17.050781 C 26.457031 17.050781 26.4375 17.019531 26.4375 17 L 26.84375 12.542969 C 26.84375 12.511719 26.875 12.492188 26.894531 12.492188 C 26.925781 12.492188 26.945312 12.523438 26.945312 12.542969 L 26.539062 17 C 26.539062 17.03125 26.519531 17.050781 26.488281 17.050781 "
        fill-opacity="1" />
    <path fill="#384154"
        d="M 32.828125 16.324219 C 32.816406 16.324219 32.816406 16.324219 32.828125 16.324219 C 32.796875 16.324219 32.777344 16.304688 32.777344 16.277344 L 32.855469 15.433594 L 33.742188 6.097656 C 33.75 5.96875 33.761719 5.839844 33.679688 5.71875 C 33.632812 5.640625 33.53125 5.632812 33.421875 5.621094 L 33.402344 5.621094 L 32.050781 5.503906 C 32.03125 5.503906 31.960938 5.503906 31.921875 5.523438 C 31.902344 5.53125 31.882812 5.542969 31.871094 5.550781 C 31.832031 5.582031 31.804688 5.601562 31.734375 5.632812 C 31.613281 5.679688 31.457031 5.660156 31.445312 5.660156 L 29.828125 5.523438 C 29.816406 5.523438 29.65625 5.511719 29.558594 5.433594 C 29.488281 5.382812 29.46875 5.351562 29.4375 5.324219 C 29.429688 5.3125 29.417969 5.304688 29.410156 5.292969 C 29.359375 5.242188 29.300781 5.242188 29.300781 5.242188 L 28.15625 5.144531 C 27.988281 5.132812 27.820312 5.125 27.691406 5.253906 C 27.601562 5.34375 27.582031 5.542969 27.5625 5.710938 L 26.945312 12.542969 C 26.945312 12.570312 26.914062 12.59375 26.894531 12.59375 C 26.867188 12.59375 26.84375 12.5625 26.84375 12.542969 L 27.460938 5.710938 C 27.480469 5.53125 27.511719 5.3125 27.621094 5.195312 C 27.789062 5.027344 28.019531 5.046875 28.167969 5.054688 L 29.300781 5.15625 C 29.300781 5.15625 29.398438 5.15625 29.476562 5.234375 C 29.488281 5.242188 29.5 5.253906 29.507812 5.261719 C 29.539062 5.292969 29.546875 5.3125 29.617188 5.351562 C 29.675781 5.402344 29.796875 5.421875 29.835938 5.421875 L 31.457031 5.5625 C 31.457031 5.5625 31.59375 5.582031 31.683594 5.542969 C 31.742188 5.511719 31.773438 5.492188 31.804688 5.472656 C 31.824219 5.460938 31.832031 5.453125 31.851562 5.433594 C 31.933594 5.382812 32.03125 5.394531 32.042969 5.394531 L 33.421875 5.511719 C 33.550781 5.53125 33.679688 5.542969 33.761719 5.660156 C 33.851562 5.808594 33.839844 5.957031 33.832031 6.097656 L 33.832031 6.136719 L 32.875 16.277344 C 32.867188 16.296875 32.847656 16.324219 32.828125 16.324219 "
        fill-opacity="1" />
    <g clip-path="url(#id4)">
        <path fill="#384154"
            d="M 24.082031 29.34375 C 24.074219 29.34375 24.074219 29.34375 24.0625 29.34375 C 24.035156 29.335938 24.023438 29.304688 24.035156 29.273438 C 24.453125 28.28125 25.214844 27.816406 25.953125 27.347656 C 26.507812 27 27.042969 26.671875 27.402344 26.148438 C 27.730469 25.660156 28.039062 25.222656 28.304688 24.835938 C 28.960938 23.914062 29.429688 23.238281 29.585938 22.710938 C 29.667969 22.453125 29.765625 22.203125 29.867188 21.984375 C 30.042969 21.558594 30.183594 21.230469 30.054688 21.042969 C 30.003906 20.972656 29.933594 20.921875 29.835938 20.921875 C 29.578125 20.902344 29.191406 21.140625 28.832031 21.539062 C 28.714844 21.667969 28.574219 21.867188 28.425781 22.085938 C 28.039062 22.640625 27.589844 23.277344 27.09375 23.328125 C 26.90625 23.347656 26.726562 23.277344 26.558594 23.128906 C 26.179688 22.789062 26.4375 21.964844 26.65625 21.242188 C 26.714844 21.03125 26.777344 20.84375 26.816406 20.683594 C 26.984375 19.96875 27.34375 18.96875 27.609375 18.242188 C 27.628906 18.183594 27.699219 18.023438 27.789062 17.804688 C 27.996094 17.296875 28.34375 16.445312 28.515625 15.917969 C 28.695312 15.371094 28.851562 14.816406 28.703125 14.539062 C 28.652344 14.449219 28.585938 14.390625 28.476562 14.359375 C 28.214844 14.289062 27.738281 15.105469 27.421875 15.648438 C 27.292969 15.871094 27.164062 16.066406 27.023438 16.277344 C 26.726562 16.722656 26.378906 17.230469 25.902344 18.222656 C 25.851562 18.320312 25.792969 18.460938 25.714844 18.621094 C 25.394531 19.296875 24.917969 20.316406 24.511719 20.984375 C 24.5 21.003906 24.460938 21.011719 24.441406 21.003906 C 24.421875 20.992188 24.410156 20.953125 24.421875 20.933594 C 24.828125 20.269531 25.324219 19.214844 25.625 18.578125 C 25.703125 18.421875 25.761719 18.28125 25.8125 18.183594 C 26.289062 17.191406 26.636719 16.671875 26.933594 16.226562 C 27.074219 16.019531 27.203125 15.820312 27.332031 15.601562 C 27.800781 14.785156 28.1875 14.179688 28.496094 14.261719 C 28.625 14.300781 28.722656 14.371094 28.78125 14.480469 C 28.953125 14.796875 28.78125 15.371094 28.605469 15.9375 C 28.425781 16.464844 28.078125 17.320312 27.867188 17.824219 C 27.78125 18.035156 27.71875 18.203125 27.691406 18.261719 C 27.433594 18.988281 27.0625 19.980469 26.90625 20.695312 C 26.867188 20.863281 26.804688 21.050781 26.746094 21.261719 C 26.539062 21.925781 26.289062 22.742188 26.617188 23.046875 C 26.765625 23.179688 26.914062 23.238281 27.074219 23.21875 C 27.519531 23.167969 27.96875 22.53125 28.335938 22.015625 C 28.484375 21.808594 28.625 21.597656 28.753906 21.460938 C 29.140625 21.03125 29.546875 20.785156 29.835938 20.804688 C 29.957031 20.8125 30.066406 20.875 30.125 20.972656 C 30.28125 21.203125 30.132812 21.558594 29.945312 22.015625 C 29.855469 22.234375 29.757812 22.472656 29.675781 22.730469 C 29.507812 23.277344 29.042969 23.953125 28.386719 24.886719 C 28.117188 25.273438 27.808594 25.699219 27.480469 26.1875 C 27.113281 26.730469 26.578125 27.070312 26 27.417969 C 25.277344 27.863281 24.519531 28.332031 24.125 29.292969 C 24.125 29.324219 24.105469 29.34375 24.082031 29.34375 "
            fill-opacity="1" />
    </g>
    <path fill="#384154"
        d="M 26.519531 22.96875 C 26.496094 22.96875 26.476562 22.960938 26.46875 22.9375 C 26.457031 22.910156 26.46875 22.890625 26.496094 22.878906 C 26.746094 22.789062 27.003906 22.253906 27.144531 21.550781 C 27.164062 21.429688 27.191406 21.3125 27.222656 21.191406 C 27.351562 20.65625 27.460938 20.199219 27.125 19.859375 C 27.105469 19.839844 27.105469 19.8125 27.125 19.792969 C 27.144531 19.773438 27.171875 19.773438 27.191406 19.792969 C 27.5625 20.167969 27.441406 20.675781 27.3125 21.210938 C 27.28125 21.332031 27.253906 21.449219 27.234375 21.570312 C 27.082031 22.3125 26.804688 22.859375 26.527344 22.96875 L 26.519531 22.96875 "
        fill-opacity="1" />
    <path fill="#384154"
        d="M 23.089844 20.4375 C 23.078125 20.4375 23.070312 20.4375 23.058594 20.425781 C 23.039062 20.417969 23.03125 20.378906 23.039062 20.355469 C 23.277344 19.96875 23.546875 19.871094 23.875 19.761719 C 24.035156 19.710938 24.191406 19.652344 24.371094 19.5625 C 24.570312 19.464844 24.757812 19.375 24.917969 19.296875 C 25.117188 19.195312 25.296875 19.117188 25.414062 19.046875 C 25.433594 19.035156 25.464844 19.035156 25.484375 19.066406 C 25.496094 19.085938 25.496094 19.117188 25.464844 19.136719 C 25.335938 19.214844 25.167969 19.296875 24.957031 19.394531 C 24.789062 19.472656 24.609375 19.5625 24.410156 19.660156 C 24.222656 19.761719 24.054688 19.820312 23.90625 19.871094 C 23.585938 19.980469 23.339844 20.070312 23.121094 20.425781 C 23.121094 20.425781 23.109375 20.4375 23.089844 20.4375 "
        fill-opacity="1" />
    <g clip-path="url(#id5)">
        <path fill="#384154"
            d="M 18.152344 29.253906 C 18.140625 29.253906 18.132812 29.253906 18.121094 29.246094 C 18.101562 29.226562 18.09375 29.195312 18.113281 29.175781 C 19.542969 27.03125 19.683594 26.085938 19.832031 25.074219 C 19.859375 24.855469 19.902344 24.578125 19.941406 24.269531 C 20.097656 23.109375 20.289062 21.660156 20.496094 21.179688 C 20.773438 20.546875 21.121094 20.378906 21.242188 20.316406 C 21.46875 20.207031 21.640625 20.1875 21.796875 20.160156 C 21.9375 20.140625 22.078125 20.117188 22.246094 20.050781 C 22.535156 19.929688 22.742188 19.792969 22.960938 19.640625 C 23.03125 19.601562 23.101562 19.554688 23.167969 19.503906 C 23.546875 19.265625 23.914062 19.273438 24.300781 19.296875 C 24.492188 19.304688 24.679688 19.316406 24.886719 19.296875 C 24.917969 19.296875 24.9375 19.316406 24.9375 19.34375 C 24.9375 19.375 24.917969 19.394531 24.886719 19.394531 C 24.667969 19.414062 24.480469 19.402344 24.292969 19.394531 C 23.90625 19.375 23.578125 19.363281 23.21875 19.582031 C 23.148438 19.632812 23.078125 19.671875 23.011719 19.710938 C 22.78125 19.859375 22.574219 20 22.277344 20.128906 C 22.097656 20.207031 21.949219 20.226562 21.808594 20.238281 C 21.648438 20.257812 21.492188 20.277344 21.28125 20.386719 C 21.171875 20.4375 20.84375 20.605469 20.585938 21.203125 C 20.386719 21.667969 20.1875 23.167969 20.039062 24.269531 C 20 24.578125 19.960938 24.847656 19.929688 25.074219 C 19.792969 26.046875 19.640625 27.058594 18.191406 29.214844 C 18.183594 29.246094 18.160156 29.253906 18.152344 29.253906 "
            fill-opacity="1" />
    </g>
    <path fill="#384154"
        d="M 8.386719 4.351562 Z M 10.292969 2.5625 C 9.28125 2.5625 8.445312 3.367188 8.433594 4.351562 C 8.425781 5.789062 9.984375 8.242188 10.261719 8.660156 C 10.542969 8.253906 12.121094 5.910156 12.140625 4.351562 C 12.152344 3.894531 11.960938 3.457031 11.632812 3.117188 C 11.277344 2.761719 10.789062 2.5625 10.292969 2.5625 Z M 10.261719 8.800781 C 10.242188 8.800781 10.234375 8.789062 10.222656 8.777344 C 10.144531 8.660156 8.324219 5.957031 8.347656 4.351562 C 8.355469 3.308594 9.230469 2.464844 10.304688 2.464844 C 10.828125 2.464844 11.347656 2.671875 11.714844 3.050781 C 12.0625 3.40625 12.261719 3.863281 12.25 4.351562 C 12.230469 6.078125 10.394531 8.667969 10.3125 8.777344 C 10.292969 8.789062 10.273438 8.800781 10.261719 8.800781 "
        fill-opacity="1" />
    <path fill="#384154"
        d="M 10.324219 3.417969 C 9.816406 3.417969 9.398438 3.804688 9.398438 4.28125 C 9.398438 4.757812 9.816406 5.144531 10.324219 5.144531 C 10.828125 5.144531 11.246094 4.757812 11.246094 4.28125 C 11.238281 3.804688 10.828125 3.417969 10.324219 3.417969 Z M 10.324219 5.242188 C 9.757812 5.242188 9.300781 4.816406 9.300781 4.28125 C 9.300781 3.753906 9.757812 3.316406 10.324219 3.316406 C 10.890625 3.316406 11.347656 3.746094 11.347656 4.28125 C 11.335938 4.808594 10.878906 5.242188 10.324219 5.242188 "
        fill-opacity="1" />
    <path fill="#e34848"
        d="M 28.921875 9.175781 C 29 8.480469 29.648438 7.953125 30.371094 8.035156 C 31.097656 8.105469 31.632812 8.75 31.554688 9.445312 C 31.414062 10.644531 29.90625 12.363281 29.90625 12.363281 C 29.90625 12.363281 28.792969 10.289062 28.921875 9.175781 "
        fill-opacity="1" />
    <path fill="#384154"
        d="M 28.972656 9.1875 C 28.863281 10.160156 29.738281 11.925781 29.925781 12.285156 C 30.183594 11.988281 31.394531 10.496094 31.515625 9.445312 C 31.554688 9.125 31.457031 8.820312 31.257812 8.558594 C 31.039062 8.292969 30.71875 8.125 30.371094 8.082031 C 29.675781 8.015625 29.042969 8.5 28.972656 9.1875 Z M 29.914062 12.414062 C 29.90625 12.414062 29.90625 12.414062 29.914062 12.414062 C 29.894531 12.414062 29.875 12.402344 29.875 12.382812 C 29.828125 12.292969 28.753906 10.277344 28.882812 9.167969 C 28.960938 8.429688 29.636719 7.90625 30.390625 7.984375 C 30.761719 8.023438 31.109375 8.214844 31.335938 8.5 C 31.554688 8.777344 31.65625 9.117188 31.625 9.453125 C 31.484375 10.65625 30.023438 12.332031 29.964844 12.402344 C 29.933594 12.414062 29.925781 12.414062 29.914062 12.414062 "
        fill-opacity="1" />
    <path fill="#ffffff"
        d="M 29.578125 9.285156 C 29.617188 8.9375 29.945312 8.679688 30.3125 8.71875 C 30.679688 8.757812 30.957031 9.078125 30.917969 9.425781 C 30.878906 9.773438 30.550781 10.03125 30.183594 9.992188 C 29.816406 9.949219 29.546875 9.632812 29.578125 9.285156 "
        fill-opacity="1" />
    <path fill="#384154"
        d="M 30.242188 8.757812 C 29.925781 8.757812 29.65625 8.988281 29.628906 9.285156 C 29.609375 9.445312 29.65625 9.59375 29.765625 9.710938 C 29.875 9.832031 30.023438 9.910156 30.195312 9.929688 C 30.542969 9.96875 30.851562 9.730469 30.878906 9.414062 C 30.910156 9.097656 30.660156 8.800781 30.3125 8.769531 C 30.292969 8.769531 30.273438 8.757812 30.242188 8.757812 Z M 30.261719 10.039062 C 30.234375 10.039062 30.214844 10.039062 30.183594 10.039062 C 29.996094 10.019531 29.816406 9.929688 29.695312 9.792969 C 29.566406 9.652344 29.519531 9.464844 29.539062 9.285156 C 29.578125 8.90625 29.925781 8.628906 30.332031 8.679688 C 30.730469 8.71875 31.027344 9.058594 30.988281 9.433594 C 30.949219 9.78125 30.632812 10.039062 30.261719 10.039062 "
        fill-opacity="1" />
    <path fill="#384154"
        d="M 30.988281 12.800781 C 30.621094 12.800781 30.222656 12.78125 29.933594 12.75 C 29.398438 12.703125 28.902344 12.621094 28.535156 12.53125 C 27.988281 12.394531 27.929688 12.285156 27.9375 12.214844 C 27.96875 11.90625 29.585938 12.015625 29.765625 12.035156 C 29.796875 12.035156 29.816406 12.066406 29.816406 12.085938 C 29.816406 12.105469 29.785156 12.136719 29.765625 12.136719 C 28.613281 12.046875 28.066406 12.15625 28.046875 12.226562 C 28.058594 12.3125 28.714844 12.53125 29.957031 12.652344 C 31.207031 12.769531 31.882812 12.671875 31.914062 12.582031 C 31.902344 12.503906 31.355469 12.292969 30.152344 12.164062 C 30.125 12.164062 30.105469 12.136719 30.113281 12.117188 C 30.113281 12.085938 30.144531 12.066406 30.164062 12.074219 C 30.351562 12.097656 32.042969 12.285156 32.011719 12.601562 C 31.980469 12.75 31.515625 12.800781 30.988281 12.800781 "
        fill-opacity="1" />
    <path fill="#384154"
        d="M 30.828125 13.097656 C 30.5625 13.097656 30.261719 13.089844 29.957031 13.058594 C 28.804688 12.949219 27.570312 12.640625 27.570312 12.265625 C 27.570312 12.214844 27.589844 12.164062 27.640625 12.117188 C 27.867188 11.90625 28.664062 11.808594 29.667969 11.867188 C 29.695312 11.867188 29.71875 11.898438 29.71875 11.917969 C 29.71875 11.945312 29.6875 11.964844 29.667969 11.964844 C 28.714844 11.90625 27.910156 11.996094 27.710938 12.183594 C 27.679688 12.214844 27.671875 12.234375 27.671875 12.265625 C 27.671875 12.492188 28.613281 12.839844 29.964844 12.960938 C 31.175781 13.070312 32.011719 12.949219 32.210938 12.761719 C 32.242188 12.730469 32.25 12.710938 32.25 12.679688 C 32.25 12.472656 31.484375 12.164062 30.234375 12.015625 C 30.203125 12.015625 30.183594 11.988281 30.195312 11.957031 C 30.195312 11.925781 30.222656 11.90625 30.253906 11.917969 C 31.265625 12.035156 32.359375 12.324219 32.359375 12.679688 C 32.359375 12.730469 32.328125 12.789062 32.28125 12.832031 C 32.101562 13.007812 31.546875 13.097656 30.828125 13.097656 "
        fill-opacity="1" />
    <path fill="#384154"
        d="M 31.65625 15.628906 C 31.632812 15.628906 31.625 15.628906 31.605469 15.628906 L 28.761719 15.390625 C 28.734375 15.390625 28.714844 15.363281 28.714844 15.34375 C 28.714844 15.324219 28.742188 15.292969 28.761719 15.292969 L 31.605469 15.53125 C 31.703125 15.542969 31.804688 15.511719 31.882812 15.441406 C 31.960938 15.371094 32.011719 15.285156 32.023438 15.183594 L 32.070312 14.636719 C 32.082031 14.539062 32.050781 14.4375 31.980469 14.359375 C 31.914062 14.28125 31.824219 14.230469 31.722656 14.21875 L 27.867188 13.863281 C 27.660156 13.84375 27.472656 14.003906 27.453125 14.210938 L 27.402344 14.757812 C 27.382812 14.925781 27.480469 15.085938 27.640625 15.144531 C 27.671875 15.152344 27.679688 15.183594 27.671875 15.214844 C 27.660156 15.242188 27.628906 15.253906 27.601562 15.242188 C 27.402344 15.164062 27.28125 14.964844 27.300781 14.746094 L 27.351562 14.199219 C 27.371094 13.933594 27.609375 13.734375 27.878906 13.765625 L 31.734375 14.121094 C 31.863281 14.132812 31.980469 14.191406 32.0625 14.289062 C 32.140625 14.390625 32.179688 14.519531 32.171875 14.648438 L 32.121094 15.195312 C 32.113281 15.324219 32.050781 15.441406 31.953125 15.523438 C 31.871094 15.589844 31.765625 15.628906 31.65625 15.628906 "
        fill-opacity="1" />
    <path fill="#384154"
        d="M 30.652344 5.285156 C 30.621094 5.285156 30.601562 5.304688 30.601562 5.324219 C 30.601562 5.34375 30.621094 5.363281 30.652344 5.363281 C 30.679688 5.363281 30.699219 5.34375 30.699219 5.324219 C 30.699219 5.304688 30.671875 5.285156 30.652344 5.285156 Z M 30.652344 5.460938 C 30.570312 5.460938 30.503906 5.402344 30.503906 5.324219 C 30.503906 5.242188 30.570312 5.183594 30.652344 5.183594 C 30.730469 5.183594 30.800781 5.242188 30.800781 5.324219 C 30.800781 5.402344 30.730469 5.460938 30.652344 5.460938 "
        fill-opacity="1" />
    <path fill="#384154"
        d="M 31.109375 5.351562 C 31.097656 5.351562 31.097656 5.363281 31.097656 5.363281 C 31.097656 5.371094 31.128906 5.371094 31.128906 5.363281 C 31.117188 5.363281 31.109375 5.351562 31.109375 5.351562 Z M 31.109375 5.472656 C 31.046875 5.472656 31 5.421875 31 5.363281 C 31 5.304688 31.046875 5.253906 31.109375 5.253906 C 31.167969 5.253906 31.21875 5.304688 31.21875 5.363281 C 31.21875 5.421875 31.167969 5.472656 31.109375 5.472656 "
        fill-opacity="1" />
    <path fill="#384154"
        d="M 31.328125 7.328125 C 31.316406 7.328125 31.296875 7.320312 31.285156 7.308594 C 30.96875 6.960938 30.023438 6.863281 29.65625 7.152344 C 29.636719 7.171875 29.609375 7.160156 29.585938 7.140625 C 29.566406 7.121094 29.578125 7.089844 29.597656 7.070312 C 30.003906 6.761719 31.019531 6.863281 31.367188 7.25 C 31.386719 7.269531 31.386719 7.300781 31.367188 7.320312 C 31.347656 7.320312 31.335938 7.328125 31.328125 7.328125 "
        fill-opacity="1" />
    <path fill="#384154"
        d="M 31.773438 7.03125 C 31.765625 7.03125 31.742188 7.019531 31.734375 7.011719 C 31.277344 6.503906 29.914062 6.375 29.371094 6.773438 C 29.347656 6.792969 29.320312 6.78125 29.300781 6.761719 C 29.28125 6.742188 29.289062 6.714844 29.308594 6.695312 C 29.894531 6.257812 31.316406 6.394531 31.804688 6.941406 C 31.824219 6.960938 31.824219 6.992188 31.804688 7.011719 C 31.792969 7.019531 31.785156 7.03125 31.773438 7.03125 "
        fill-opacity="1" />
    <path fill="#384154"
        d="M 31.027344 7.6875 C 31.019531 7.6875 31 7.675781 30.988281 7.667969 C 30.78125 7.429688 30.144531 7.367188 29.886719 7.558594 C 29.867188 7.578125 29.835938 7.566406 29.816406 7.546875 C 29.796875 7.527344 29.804688 7.496094 29.828125 7.476562 C 30.113281 7.261719 30.820312 7.328125 31.058594 7.597656 C 31.078125 7.617188 31.078125 7.648438 31.058594 7.667969 C 31.046875 7.675781 31.039062 7.6875 31.027344 7.6875 "
        fill-opacity="1" />
</svg>